<svg>
	<symbol id="facebook" xmlns="http://www.w3.org/2000/svg">
		<g clip-path="url(#clip0_2_967)">
			<path
				d="M35 70.0001C54.33 70.0001 70 54.33 70 35.0001C70 15.6701 54.33 4.57764e-05 35 4.57764e-05C15.6701 4.57764e-05 3.8147e-05 15.6701 3.8147e-05 35.0001C3.8147e-05 54.33 15.6701 70.0001 35 70.0001Z"
				fill="#3C5A9A" />
			<path
				d="M46.3805 10.7432H38.6271C34.026 10.7432 28.9083 12.6783 28.9083 19.3478C28.9308 21.6717 28.9083 23.8973 28.9083 26.4021H23.5855V34.8724H29.073V59.2567H39.1567V34.7114H45.8123L46.4145 26.3784H38.983C38.983 26.3784 38.9996 22.6714 38.983 21.5949C38.983 18.9593 41.7254 19.1102 41.8904 19.1102C43.1954 19.1102 45.7329 19.114 46.3843 19.1102V10.7432H46.3805Z"
				fill="white" />
		</g>
	</symbol>

	<symbol id="trello" xmlns="http://www.w3.org/2000/svg">
		<g clip-path="url(#clip0_2_990)">
			<path fill-rule="evenodd" clip-rule="evenodd"
				d="M35 70C54.33 70 70 54.33 70 35C70 15.67 54.33 0 35 0C20.6235 0 8.27158 8.66784 2.88502 21.0626L12.0151 26.4961C12.9225 27.0347 14.0445 27.0257 14.9586 26.4961C15.7177 26.0562 38.4665 12.6576 38.8073 12.4556C39.4837 12.0563 40.317 12.0461 41.0027 12.4286C41.4644 12.707 42.6789 13.4147 43.3777 13.8219L43.4593 13.8695C44.1454 14.269 44.1122 15.3732 43.5036 15.7323C43.1712 15.9308 35.0814 20.6996 27.6036 25.1075L27.5986 25.1104L27.5667 25.1292C21.3645 28.7853 15.5931 32.1874 15.0316 32.5199H15.0338C14.0158 33.1191 13.0088 33.1326 11.9576 32.5266C10.3946 31.6206 4.49216 28.1053 1.14044 26.1045C0.735667 27.6494 0.433831 29.236 0.2427 30.8564L12.0151 37.6678C12.9225 38.1915 14.0445 38.1827 14.9586 37.6678C15.7177 37.2401 38.4665 24.2137 38.8073 24.0173C39.4837 23.6291 40.317 23.6192 41.0027 23.9911C41.4641 24.2615 42.6771 24.9488 43.3761 25.3448L43.3776 25.3456L43.4593 25.392C44.1454 25.7804 44.1122 26.8539 43.5036 27.203C43.1717 27.3957 35.1052 32.0187 27.6366 36.2989L27.6007 36.3195L27.5947 36.3229C21.3819 39.8834 15.5939 43.2005 15.0316 43.5242H15.0338C14.0158 44.1068 13.0088 44.1199 11.9576 43.5308C10.2035 42.5423 2.98401 38.3587 0.0380554 36.6469C0.146375 38.9854 0.484168 41.2638 1.02943 43.4604L12.0151 49.8166C12.9224 50.3402 14.0445 50.3315 14.9585 49.8166C15.7176 49.3889 38.4664 36.3624 38.8073 36.1661C39.4836 35.7779 40.317 35.7679 41.0027 36.1399C41.4643 36.4104 42.6783 37.0982 43.3771 37.4942L43.4593 37.5407C44.1453 37.9291 44.1121 39.0026 43.5035 39.3518C43.1711 39.5448 35.0782 44.1828 27.5992 48.469C21.3847 52.0306 15.594 55.3492 15.0316 55.673H15.0338C14.0157 56.2556 13.0088 56.2687 11.9575 55.6796C10.7665 55.0083 7.05548 52.864 3.87358 51.0206C9.68693 62.2926 21.4434 70 35 70Z"
				fill="#E44332" />
		</g>
	</symbol>

	<symbol id="worklio" xmlns="http://www.w3.org/2000/svg">
		<g clip-path="url(#clip0_2_970)">
			<path
				d="M30.6679 40.3048L33.8435 28.8212C33.9399 28.5 34.1312 28.3714 34.4533 28.3714H37.0189C37.3724 28.3714 37.5331 28.5 37.6297 28.8212L40.9016 40.3693L43.7556 31.0019H42.2162C41.8948 31.0019 41.7342 30.8427 41.7342 30.5214V28.8518C41.7342 28.4998 41.8948 28.3713 42.2162 28.3713H46.3207C46.8671 28.3713 47.0919 28.7889 46.9633 29.2374L42.5361 43.8C42.441 44.1213 42.2484 44.2499 41.9271 44.2499H39.0407C38.7196 44.2499 38.5267 44.1213 38.4303 43.7693L35.3832 32.4449L32.2078 43.8C32.1113 44.1213 31.9185 44.2499 31.5987 44.2499H28.7111C28.3904 44.2499 28.1976 44.1213 28.102 43.8L24.6051 31.0019H22.9378C22.6164 31.0019 22.4558 30.8427 22.4558 30.5214V28.8518C22.4558 28.4998 22.6164 28.3713 22.9378 28.3713H27.1395C27.46 28.3713 27.6529 28.4998 27.75 28.8518L30.6679 40.3048Z"
				fill="#4D4D4D" />
			<path
				d="M51.1701 60.3053C47.1706 58.1321 44.6116 54.3329 43.8403 50.1816C38.6987 53.1644 32.1739 53.5032 26.5744 50.4563C22.3509 48.1675 17.0646 49.7319 14.7699 53.956C12.4751 58.1788 14.0404 63.4618 18.2638 65.7611C31.158 72.7633 46.5453 70.79 57.242 61.9895C55.1284 61.8638 53.0457 61.3206 51.1701 60.3053Z"
				fill="#24BAC9" />
			<path
				d="M62.0111 12.7747C61.8855 14.8605 61.3158 16.9156 60.2875 18.8058C58.1843 22.6866 54.4962 25.342 50.1623 26.1367C53.1521 31.278 53.4894 37.8041 50.4471 43.3985C48.1523 47.6212 49.7181 52.9099 53.9396 55.2078C58.1639 57.4996 63.4513 55.9336 65.7448 51.711C72.7443 38.8325 70.7781 23.4725 62.0111 12.7747Z"
				fill="#F03955" />
			<path
				d="M9.66949 51.1868C11.7815 47.3043 15.4639 44.6532 19.797 43.8528C16.8106 38.7127 16.471 32.1925 19.5129 26.5864C21.8047 22.3652 20.2424 17.0806 16.0188 14.7888C11.7932 12.4913 6.50921 14.0571 4.21447 18.2798C-2.78803 31.1583 -0.817455 46.5301 7.95676 57.2251C8.08081 55.1668 8.62712 53.1061 9.66949 51.1868Z"
				fill="#59B89C" />
			<path
				d="M51.6956 4.23147C38.801 -2.77667 23.4142 -0.79749 12.7179 7.99987C14.8291 8.12689 16.9171 8.67037 18.7898 9.68692C22.7883 11.8603 25.349 15.6523 26.1224 19.812C31.2646 16.8208 37.7887 16.4875 43.3846 19.5288C47.609 21.822 52.8952 20.259 55.1898 16.0349C57.4846 11.8062 55.923 6.52621 51.6956 4.23147Z"
				fill="#F09502" />
		</g>
	</symbol>

	<symbol id="dropbox" xmlns="http://www.w3.org/2000/svg">
		<g>
			<path fill-rule="evenodd" clip-rule="evenodd"
				d="M0 35C0 15.67 15.67 0 35 0C54.33 0 70 15.67 70 35C70 54.33 54.33 70 35 70C15.67 70 0 54.33 0 35Z"
				fill="#3D9AE8" />
			<path fill-rule="evenodd" clip-rule="evenodd"
				d="M47.128 44.9299V46.8968L34.9719 54.7816L23.0851 46.8431V44.989L26.6404 47.0955L27.0361 47.3292L27.4014 47.0499L35.081 41.1572L42.758 47.0499L43.126 47.3311L43.5227 47.0929L47.128 44.9299Z"
				fill="white" />
			<path fill-rule="evenodd" clip-rule="evenodd"
				d="M43.3615 17.5518L35.081 24.4956L26.9867 17.5518L14.5934 25.6245L23.1281 32.117L14.5934 38.6105L23.0851 43.6403L26.9868 45.951L35.0811 39.7405L43.1727 45.951L47.128 43.5776L55.4066 38.6105L47.5013 31.8351L55.4066 25.2476L43.3615 17.5518ZM46.7967 31.5718L34.9996 39.3894L23.2759 32.0033L35.1062 24.8554L46.7967 31.5718Z"
				fill="white" />
			<path fill-rule="evenodd" clip-rule="evenodd"
				d="M70 35C70 54.33 54.3299 70 35 70C27.8309 70 21.1653 67.8446 15.616 64.1466L55.72 6.78931C64.3802 13.1608 70 23.4241 70 35Z"
				fill="black" fill-opacity="0.08" />
		</g>
	</symbol>

	<symbol id="google" xmlns="http://www.w3.org/2000/svg">
		<g>
			<path fill-rule="evenodd" clip-rule="evenodd"
				d="M0 34.895C0 15.623 15.6527 0 34.9613 0C54.2699 0 69.9226 15.623 69.9226 34.895C69.9226 54.1669 54.2699 69.7899 34.9613 69.7899C15.6527 69.7899 0 54.1669 0 34.895Z"
				fill="#D34836" />
			<path fill-rule="evenodd" clip-rule="evenodd"
				d="M68.8363 26.8625H60.5687V36.0314H56.6716V26.8625H47.5787V23.0463H56.6716V13.958H60.5687V23.0463H67.5106C68.0234 24.2841 68.4669 25.5579 68.8363 26.8625Z"
				fill="white" />
			<path fill-rule="evenodd" clip-rule="evenodd"
				d="M9.60439 57.478C10.582 55.8372 12.0978 54.224 14.3434 52.8983C19.4102 49.7997 26.2343 49.3904 29.9245 49.1566C28.7823 47.695 27.4643 46.1457 27.4643 43.6024C27.4643 42.2285 27.8744 41.41 28.2844 40.4453C27.3765 40.533 26.4978 40.6207 25.6778 40.6207C17.0378 40.6207 12.1468 34.1896 12.1468 27.8462C12.1468 24.1045 13.8748 19.9476 17.36 16.9396C22.0168 13.119 27.5522 12.4671 31.9454 12.4671H48.7274L43.5141 15.3932H38.4766C40.351 16.9396 44.2463 20.1932 44.2463 26.3846C44.2463 32.4065 40.8196 35.242 37.4222 37.9314C36.3386 38.9837 35.1378 40.1238 35.1378 41.907C35.1378 43.6901 36.3386 44.684 37.2465 45.4148L40.1753 47.695C43.7777 50.6767 47.0287 53.4537 47.0287 59.0664C47.0287 62.7677 45.2981 66.4826 41.9262 69.3336C40.112 69.6288 38.2508 69.7847 36.3542 69.7898C39.7781 68.2907 41.5518 65.5479 41.5518 62.2527C41.5518 58.1017 38.8866 55.9093 32.6776 51.4952C32.0333 51.4367 31.6232 51.4367 30.8032 51.4367C30.071 51.4367 25.6778 51.5829 22.2511 52.7229C20.4645 53.366 15.2513 55.3246 15.2513 61.1126C15.2513 61.7416 15.3184 62.3515 15.4493 62.9388C6.86195 56.5807 10.582 57.478 9.60439 57.478ZM37.0708 30.1263C37.0708 24.2506 33.5855 15.1506 26.82 15.1506C24.7113 15.1506 22.4268 16.2088 21.1089 17.8371C19.7323 19.5442 19.3223 21.7366 19.3223 23.8414C19.3223 29.3078 22.4854 38.3406 29.5145 38.3406C31.5354 38.3406 33.732 37.3467 35.0499 36.0605C36.9244 34.1896 37.0708 31.5879 37.0708 30.1263Z"
				fill="white" />
			<path fill-rule="evenodd" clip-rule="evenodd"
				d="M70 35.105C70 54.377 54.3473 70 35.0387 70C27.8776 70 21.2194 67.8511 15.6761 64.1641L55.7358 6.979C64.3865 13.3313 70 23.5639 70 35.105Z"
				fill="black" fill-opacity="0.08" />
		</g>
	</symbol>

	<symbol id="trello-plain" xmlns="http://www.w3.org/2000/svg">
		<g>
			<path fill-rule="evenodd" clip-rule="evenodd"
				d="M70 35C70 54.33 54.33 70 35 70C15.67 70 0 54.33 0 35C0 15.67 15.67 0 35 0C54.33 0 70 15.67 70 35ZM19.0909 23.5124C19.0909 20.751 21.3295 18.5124 24.0909 18.5124H27.9752C30.7366 18.5124 32.9752 20.751 32.9752 23.5124V44.7521C32.9752 47.5135 30.7366 49.7521 27.9752 49.7521H24.0909C21.3295 49.7521 19.0909 47.5135 19.0909 44.7521V23.5124ZM43.1818 18.5124C40.4204 18.5124 38.1818 20.751 38.1818 23.5124V33.1818C38.1818 35.9432 40.4204 38.1818 43.1818 38.1818H47.0661C49.8275 38.1818 52.0661 35.9432 52.0661 33.1818V23.5124C52.0661 20.751 49.8275 18.5124 47.0661 18.5124H43.1818Z"
				fill="#5D7FC7" />
		</g>
	</symbol>

	<symbol id="slack" xmlns="http://www.w3.org/2000/svg">
		<g clip-path="url(#clip0_2_209)">
			<path
				d="M54.6509 44.8457L69.6461 39.7478C69.8626 38.1652 69.9714 36.5697 69.9717 34.9724C69.9775 30.3339 69.0581 25.7408 67.2675 21.4618C65.4769 17.1828 62.8509 13.3039 59.5433 10.052L44.825 15.1286L54.6509 44.8457Z"
				fill="#E0A451" />
			<path
				d="M44.825 15.1271L39.9295 0.323315C40.1903 0.359837 40.45 0.39991 40.7087 0.443534C35.0876 -0.487133 29.3243 -0.0324613 23.9187 1.76812C18.5131 3.5687 13.6283 6.66083 9.68805 10.7763L14.7235 25.5131L44.825 15.1271Z"
				fill="#76C5C9" />
			<path
				d="M44.825 15.1271L59.5433 10.0504L59.4398 9.94849C59.3049 9.8166 59.1684 9.68522 59.0304 9.55435L58.8418 9.3763C58.7089 9.25253 58.5755 9.12978 58.4415 9.00804L58.2376 8.8239C58.1057 8.70622 57.9728 8.59006 57.8389 8.47542L57.6228 8.28976C57.491 8.17715 57.3576 8.06606 57.2226 7.9565L56.9974 7.77084C56.8635 7.66279 56.7281 7.55627 56.5926 7.44975L56.3613 7.27627C56.2244 7.16974 56.0859 7.06626 55.9459 6.96126L55.7146 6.78778C55.5624 6.67821 55.4102 6.57017 55.2581 6.46212L55.0526 6.30994C54.8396 6.16081 54.625 6.01371 54.4089 5.86863C54.2918 5.79102 54.1731 5.71645 54.0559 5.63732L53.7424 5.43341C53.6131 5.35123 53.4807 5.27058 53.3498 5.1884L53.0805 5.0134C52.942 4.9297 52.8035 4.84753 52.6635 4.76687L52.3972 4.61469C52.245 4.531 52.105 4.44882 51.9589 4.36817L51.7063 4.22817C51.5541 4.14498 51.402 4.06331 51.2498 3.98316L51.0109 3.85838C50.8506 3.7762 50.6898 3.69504 50.5285 3.61489L50.3094 3.50685C50.1399 3.42366 49.9695 3.34199 49.7981 3.26184L49.6002 3.16749C49.4186 3.08329 49.236 3.00061 49.0524 2.91945L48.9002 2.85705C48.7009 2.77031 48.5 2.68509 48.2915 2.6014L48.2261 2.574C46.3066 1.78675 44.3204 1.17306 42.2913 0.740276L42.2761 0.732667C42.0255 0.678898 41.7719 0.628172 41.5152 0.58049H41.4818C41.2292 0.532808 40.9755 0.48817 40.7209 0.446575H40.695C40.4363 0.403965 40.1766 0.363892 39.9159 0.326355L44.825 15.1271Z"
				fill="#657E41" />
			<path
				d="M24.7959 54.9959L29.7811 69.5896C29.5498 69.5546 29.3246 69.5181 29.0872 69.4785C34.5745 70.4106 40.205 70.0215 45.512 68.3437C50.819 66.6659 55.6498 63.7476 59.6041 59.8305L54.6493 44.8441L24.7959 54.9959Z"
				fill="#CB2561" />
			<path
				d="M60.6465 58.7546L60.7987 58.6024C60.9813 58.3995 61.1613 58.1966 61.3389 57.9937L61.4241 57.8948C61.5712 57.7254 61.7168 57.5544 61.8608 57.382C61.9324 57.2968 62.0024 57.2085 62.0739 57.1217C62.1728 57.0015 62.2717 56.8798 62.3691 56.7581C62.4665 56.6363 62.5213 56.5557 62.608 56.4537C62.6947 56.3517 62.7784 56.2346 62.8621 56.125C62.9458 56.0154 63.028 55.9043 63.1102 55.7933L63.3384 55.4889C63.4237 55.3712 63.5079 55.253 63.591 55.1343L63.7995 54.83C63.8858 54.7052 63.971 54.5804 64.0552 54.4556L64.2439 54.171C64.3311 54.0381 64.4173 53.9052 64.5026 53.7723L64.6684 53.5091C64.7567 53.3676 64.8465 53.2245 64.9332 53.0815L65.0702 52.8517C65.163 52.6995 65.2573 52.5382 65.3486 52.3784L65.4323 52.2262C66.0357 51.1636 66.5827 50.0699 67.0713 48.9499L67.1123 48.857C67.2006 48.6541 67.2868 48.4512 67.371 48.2483L67.4228 48.122C67.505 47.9191 67.5851 47.7162 67.6632 47.5133L67.715 47.3794C67.7931 47.1765 67.8692 46.9695 67.9432 46.7585L67.9873 46.6368C68.0634 46.4227 68.137 46.2076 68.208 45.9915L68.2384 45.9002C68.3135 45.672 68.386 45.4427 68.456 45.2124L68.4636 45.1865C69.0039 43.4112 69.4013 41.5955 69.6521 39.7569L54.6569 44.8548L59.6117 59.8412L59.6726 59.7803C59.8019 59.6524 59.9282 59.5216 60.056 59.3922L60.2447 59.199C60.3771 59.0453 60.5126 58.8992 60.6465 58.7546Z"
				fill="#B32231" />
			<path
				d="M14.722 25.5101L0.256332 30.4985C0.0668469 31.9823 -0.0281996 33.4766 -0.0282335 34.9724C-0.0338725 39.6106 0.885365 44.2033 2.67571 48.482C4.46607 52.7607 7.09159 56.6395 10.3987 59.8914L24.7974 54.9959L14.722 25.5101Z"
				fill="#45A98E" />
			<path
				d="M9.68806 10.7763L9.64393 10.822C9.50494 10.968 9.36697 11.1152 9.23001 11.2633L9.09762 11.4063C8.95357 11.5646 8.81103 11.7239 8.67002 11.8842L8.56501 12.0029C8.41081 12.1794 8.25864 12.3579 8.10849 12.5385L8.0461 12.6116C7.35523 13.4424 6.70241 14.3048 6.08763 15.1986L6.04654 15.2594C5.9106 15.4623 5.77618 15.6652 5.64328 15.8681L5.54741 16.0203C5.4348 16.1938 5.32371 16.3688 5.21415 16.5453L5.09393 16.7432C4.99502 16.9045 4.89763 17.0658 4.80024 17.2301L4.66784 17.4584C4.57806 17.6106 4.48828 17.7627 4.40154 17.924L4.26306 18.1751C4.18089 18.3253 4.09922 18.4775 4.01806 18.6317L3.87806 18.901C3.80197 19.0481 3.7264 19.1962 3.65132 19.3454L3.51132 19.6284C3.44031 19.7745 3.3698 19.9211 3.2998 20.0682L3.16741 20.3497C3.10045 20.4948 3.03451 20.6404 2.96958 20.7865L2.83567 21.0908C2.77277 21.2359 2.7114 21.3815 2.65154 21.5276C2.60792 21.629 2.5648 21.734 2.52219 21.8426C2.46335 21.9877 2.40603 22.1328 2.35024 22.2778C2.30915 22.3843 2.26654 22.4924 2.22545 22.6004C2.17067 22.7526 2.11741 22.8926 2.06415 23.0387C2.02459 23.1483 1.98502 23.2563 1.94698 23.3659C1.89524 23.5181 1.84502 23.6596 1.7948 23.8072C1.75828 23.9183 1.72024 24.0279 1.68372 24.1389C1.63502 24.2911 1.58937 24.4433 1.54372 24.5863C1.50872 24.6974 1.47372 24.8085 1.44024 24.9196C1.39459 25.0718 1.35198 25.224 1.30937 25.3761C1.27741 25.4872 1.24545 25.5968 1.21502 25.7079C1.17241 25.8601 1.13132 26.0229 1.09024 26.1812C1.06285 26.2877 1.03393 26.3942 1.00654 26.5023C0.963934 26.6742 0.924369 26.8477 0.883282 27.0197C0.861977 27.114 0.837629 27.2084 0.816325 27.3027C0.75647 27.5685 0.700166 27.8353 0.647412 28.1032C0.630673 28.1853 0.616977 28.2675 0.60176 28.3497C0.565238 28.5384 0.528717 28.7271 0.49676 28.9158C0.476978 29.033 0.458717 29.1501 0.438934 29.2673C0.413064 29.4195 0.387195 29.5717 0.364369 29.7345C0.344586 29.8623 0.329369 29.9901 0.311108 30.1164C0.292847 30.2428 0.276108 30.3675 0.259369 30.4938L14.725 25.504L9.68806 10.7763Z"
				fill="#298B75" />
			<path
				d="M24.7958 54.9958L10.3987 59.8914L10.4413 59.9294C10.6067 60.0917 10.773 60.252 10.9404 60.4103L11.0317 60.497C11.2052 60.6594 11.3797 60.8197 11.5552 60.9779L11.6313 61.0464C11.821 61.2158 12.0122 61.3832 12.205 61.5486L12.243 61.5805C13.078 62.2907 13.9464 62.9653 14.8482 63.6045L14.9487 63.6745C15.1333 63.8033 15.3195 63.9312 15.5072 64.058L15.6867 64.1767C15.849 64.2842 16.0124 64.3907 16.1767 64.4962L16.4065 64.6469C16.5587 64.7423 16.7108 64.8366 16.863 64.9299L17.1156 65.0821L17.5539 65.3378L17.8293 65.49L18.2539 65.7243L18.5476 65.8765L18.963 66.0926L19.2674 66.2448L19.6737 66.4441L19.9993 66.5963C20.1317 66.6587 20.2656 66.7195 20.398 66.7804L20.7389 66.9326C20.8637 66.9874 20.9885 67.0406 21.1148 67.0954C21.4293 67.2314 21.7463 67.3627 22.0658 67.4896L22.1998 67.5428C22.3595 67.6052 22.5208 67.6661 22.6821 67.7254L22.953 67.8274C23.1052 67.8852 23.2726 67.9415 23.4324 67.9978L23.7139 68.0967C23.8752 68.1515 24.0365 68.2033 24.1993 68.2489L24.4824 68.3402C24.6467 68.392 24.8111 68.4407 24.9754 68.4924L25.2554 68.5746L25.7606 68.7161L26.033 68.7891L26.5534 68.9215L26.8121 68.9839C26.9917 69.0265 27.1718 69.0681 27.3524 69.1087L27.5913 69.1605C27.78 69.2015 27.9702 69.2411 28.1604 69.2792L28.3613 69.3172C28.5652 69.3568 28.7691 69.3948 28.97 69.4298L29.0826 69.4481C29.3124 69.4876 29.5391 69.5242 29.7765 69.5592L24.7958 54.9958Z"
				fill="#432344" />
		</g>
	</symbol>
</svg>