<svg width="375" height="288" viewBox="0 0 375 288" fill="none" xmlns="http://www.w3.org/2000/svg">
<path fill-rule="evenodd" clip-rule="evenodd" d="M94.5492 172.924C96.4586 171.63 100.363 166.997 102.408 165.926C106.957 163.545 127.221 158.865 127.88 158.588C128.883 158.167 135.402 156.696 139.2 155.766C148.119 153.583 180.08 139.48 188.505 135.864C189.58 138.679 198.458 151.106 196.935 152.379C191.921 156.572 182.933 161.793 177.124 164.797C172.426 167.227 167.45 169.238 162.427 170.88C156.723 172.745 152.809 174.744 147.124 176.651C141.532 178.527 148.216 184.396 151.088 185.608C154.309 186.969 159.298 187.659 162.59 188.838C156.795 197.797 151.928 208.671 150.954 219.403C150.72 221.985 148.741 224.353 145.521 223.58C143.86 223.181 128.531 221.15 126.032 220.583C109.346 216.798 79.3909 196.976 87.1048 176.651C88.8719 177.463 92.9065 174.038 94.5492 172.924Z" fill="#FF7A00"/>
<path fill-rule="evenodd" clip-rule="evenodd" d="M103.884 65.0848C105.131 64.9802 108.354 62.5033 106.662 61.2505C104.956 59.9866 103.73 64.2224 103.884 65.0848ZM38.9498 74.5843C39.2757 74.5269 39.1334 72.7534 38.6206 72.5268C37.0011 71.8117 36.8646 74.4993 36.8249 75.2185C36.7758 76.126 36.6613 78.6826 38.6304 77.9817C39.748 77.5839 39.0544 75.2644 38.9498 74.5843ZM134.542 82.8704C134.498 84.4536 137.714 87.4979 138.912 85.6719C139.921 84.1375 134.625 79.7187 134.542 82.8704ZM20.8561 47.1637C21.7877 49.5279 26.3952 46.3062 26.5666 44.5721C26.9178 41.0209 20.8078 44.8011 20.8561 47.1637ZM59.2963 57.3559C61.442 57.1806 64.2653 54.467 66.3346 53.4533C67.7348 52.7675 71.5449 51.9498 71.9592 50.3923C72.3199 49.0389 65.8553 51.9356 65.3032 52.1931C62.7674 53.3748 60.481 54.722 59.2963 57.3559ZM220.378 38.6441C222.088 37.3286 224.167 36.48 226.359 36.5357C227.454 36.5634 229.738 37.2448 229.824 35.3614C229.964 32.2991 220.295 36.0338 218.784 36.6346C219.315 37.305 219.847 37.9745 220.378 38.6441ZM113.686 157.988C112.431 155.915 110.174 154.717 108.477 152.949C109.099 155.852 107.697 158.435 106.734 161.085C109.051 160.052 111.368 159.02 113.686 157.988ZM331.573 202.169C332.264 199.868 332.956 197.579 333.765 195.312C334.67 192.774 335.119 192.554 332.954 190.78C331.157 194.158 329.36 197.537 327.563 200.916C328.842 201.457 330.177 201.983 331.573 202.169ZM145.583 35.5383C143.204 32.8707 132.053 32.7031 133.433 38.5908C133.914 40.6467 136.656 38.4627 138.373 37.9835C140.078 37.5075 144.904 37.4445 145.583 35.5383ZM145.174 73.3078C144.886 72.6269 144.31 70.1695 143.455 69.9759C142.623 69.7871 139.337 72.3645 138.72 72.7578C135.639 74.7214 132.636 76.8338 129.634 78.9153C130.784 78.9153 131.828 78.5081 132.97 78.4995C134.328 78.4877 135.301 79.0426 136.625 78.7261C139.469 78.0468 142.77 74.9117 145.174 73.3078ZM148.256 12.4354C148.523 11.2151 162.465 14.8781 164.141 15.5488C165.053 15.9136 169.764 18.349 168.751 14.6785C168.175 12.588 162.733 10.9944 160.988 10.4215C156.554 8.96565 151.879 7.93011 147.158 8.17027C146.241 8.21656 139.298 8.61512 142.197 11.3912C143.196 12.3473 146.777 12.0459 148.256 12.4354ZM151.308 180.087C153.906 181.358 156.558 182.33 159.273 183.324C160.479 183.766 162.358 184.922 163.688 184.632C164.778 184.393 165.127 182.743 165.7 181.638C167.793 177.595 170.292 174.334 173.391 171.001C171.952 169.957 164.648 174.562 162.84 175.242C161.031 175.922 159.324 176.607 157.552 177.421C155.885 178.186 152.595 178.871 151.308 180.087ZM197.3 145.627C201.085 143.923 204.673 140.902 207.778 138.196C211.343 135.09 214.539 131.834 217.148 127.815C215.578 127.894 212.111 132.919 212.072 127.449C212.052 124.658 215.896 121.909 217.09 119.321C214.121 117.654 211.401 127.615 207.995 125.2C204.714 122.874 209.891 114.875 210.888 112.352C208.964 111.078 197.999 125.334 196.412 127.158C195.42 128.3 193.072 129.82 192.512 131.152C192.178 131.945 192.131 134.461 192.292 135.19C192.628 136.715 194.329 138.542 195.086 139.962C196.045 141.76 196.879 143.628 197.3 145.627ZM353.799 197.025C350.525 192.428 353.907 190.424 356.568 186.609C358.697 183.557 360.656 180.194 362.005 176.786C365.38 168.262 368.426 160.338 370.093 151.322C367.799 152.364 366.365 156.328 365.217 158.417C363.674 161.225 362.316 164.173 360.601 166.894C357.392 171.985 354.241 177.416 350.159 181.829C348.309 183.829 346.743 186.079 344.609 187.881C343.634 188.705 341.769 189.38 341.05 190.41C340.372 191.382 341.131 192.003 340.873 193.164C340.609 194.355 339.398 195.625 338.878 196.772C338.195 198.278 337.56 199.788 336.798 201.261C335.967 202.867 335.74 203.707 335.516 205.277C335.271 206.993 336.022 207.172 334.515 208.753C337.245 209.951 339.976 211.149 342.707 212.346C343.628 212.751 344.55 213.155 345.472 213.559C345.666 213.197 345.86 212.835 346.055 212.472C346.805 211.748 347.495 209.96 347.924 209.002C349.719 205.006 351.745 200.993 353.799 197.025ZM90.0982 177.73C82.3443 198.036 109.592 215.134 126.364 218.915C128.688 219.439 130.955 220.124 133.267 220.687C135.789 221.3 138.028 221.177 140.545 221.434C142.547 221.638 143.502 223.177 145.388 223.601C148.541 224.31 148.349 221.952 148.575 219.427C149.532 208.719 155.026 198.387 160.841 189.452C158.185 188.506 155.553 187.475 152.931 186.44C150.687 185.554 147.251 183.063 144.839 182.932C143.055 182.835 140.336 184.35 138.604 185.015C135.718 186.123 132.824 187.066 129.817 187.822C124.558 189.142 118.706 190.943 113.264 191.079C111.695 191.119 107.391 191.845 106.262 190.881C104.11 189.042 107.098 187.509 108.9 186.853C119.641 182.94 131.045 181.277 141.816 177.266C147.359 175.201 152.844 172.896 158.422 170.862C163.23 169.109 168.266 167.557 172.912 165.401C179.048 162.554 185.21 159.008 190.524 154.83C191.588 153.994 193.816 152.752 194.545 151.541C195.187 150.474 195.106 151.538 194.973 150.245C194.877 149.316 193.735 148.057 193.265 147.18C191.514 143.908 189.931 140.547 188.601 137.085C180.125 140.701 172.062 145.623 163.711 149.487C155.305 153.378 145.824 156.122 136.832 158.31C133.004 159.242 128.605 159.536 125.095 161.377C123.603 162.159 122.129 163.063 120.532 163.516C120.06 164.416 119.596 164.592 119.138 164.045C118.851 163.725 118.481 163.59 118.026 163.639C117.049 163.804 116.053 164.263 115.139 164.616C110.514 166.399 106.086 168.632 101.695 170.911C99.6143 171.99 97.4796 173.053 95.4881 174.286C94.4208 174.947 93.4642 175.614 92.5907 176.521C91.5434 177.609 91.7929 178.504 90.0982 177.73ZM264.577 57.1648C266.537 57.1965 268.323 56.1405 270.366 56.1995C273.579 56.2918 276.123 58.7699 277.988 61.1597C281.678 65.8881 280.737 71.5924 278.883 76.8842C277.996 79.4132 276.778 81.8408 275.257 84.0545C273.91 86.0144 271.502 87.8681 270.562 90.05C269.011 93.6488 272.139 92.1185 274.055 91.3501C276.463 90.3828 278.72 89.1808 280.764 87.5614C289.874 80.3443 296.804 70.3127 299.126 58.7919C300.258 53.171 300.171 46.5999 296.235 42.0122C292.636 37.8171 286.424 36.4467 281.113 37.2244C275.373 38.0656 270.17 40.4844 265.496 43.5974C264.138 44.5021 262.895 45.4898 261.621 46.5014C259.948 47.8288 258.946 47.8633 259.364 49.9436C259.675 51.4902 260.522 53.0929 261.067 54.5768C262.089 57.3563 261.716 58.0755 264.577 57.1648ZM270.825 105.084L270.428 105.758C273.161 105.887 275.707 103.489 278.036 102.318C281.061 100.796 283.748 98.7206 286.399 96.6244C291.074 92.9272 295.81 88.7606 299.29 83.9069C307.091 73.0267 314.177 59.2324 312.048 45.4377C309.754 30.5703 296.681 24.8473 282.751 26.8154C276.474 27.7023 270.869 30.4902 265.251 33.3206C262.419 34.7471 260.029 36.5984 257.435 38.3898C256.089 39.3201 254.86 39.441 254.772 41.0673C254.706 42.2929 256.836 45.0647 257.412 46.1752C264.466 39.0175 272.068 33.096 282.72 32.7299C295.393 32.2947 302.887 44.2475 302.832 55.6934C302.777 66.9185 297.91 77.7161 290.151 85.7833C286.625 89.4496 283.263 92.3915 278.934 95.0673C276.775 96.4011 275.183 97.5986 272.77 98.4842C271.063 99.1111 271.241 98.7808 270.805 100.353C270.435 101.686 270.813 103.699 270.825 105.084ZM201.962 257.59C201.797 259.612 201.384 261.604 200.924 263.577C200.759 264.286 199.829 266.522 199.992 267.319C200.261 268.636 199.903 267.789 201.062 268.476C202.272 269.193 203.68 269.15 205.005 269.367C205.822 269.502 208.818 270.904 209.322 270.683C210.203 270.296 210.175 268.931 211.141 268.39C212.458 267.652 214.398 268.284 215.64 268.861C218.961 270.401 221.243 273.591 224.456 275.337C230.162 278.437 236.934 280.153 243.3 280.861C246.749 281.245 250.278 281.918 253.684 281.114C256.367 280.481 259.855 280.539 261.314 277.675C248.35 274.129 228.563 269.789 223.437 254.99C220.651 257.503 215.994 256.15 212.627 255.803C208.922 255.421 205.612 255.51 202.224 253.831C201.976 255.151 201.9 256.247 201.962 257.59ZM87.18 165.935C93.2827 166.301 99.0684 163.429 102.824 158.582C103.748 157.388 104.696 156.17 105.251 154.755C105.372 154.397 105.492 154.038 105.612 153.68C106.195 152.69 105.939 152.223 104.847 152.279C104.232 151.439 102.671 151.157 103.115 149.635C103.449 148.487 104.683 148.468 105.755 148.107C105.221 147.215 104.902 146.767 104.138 145.973C102.151 147.751 98.5466 151.239 97.1509 147.156C96.4802 145.196 97.6604 143.322 97.368 141.431C97.2478 140.649 96.2512 138.651 95.6733 138.184C92.5969 135.692 88.166 136.724 84.9018 138.19C82.6522 139.201 82.168 139.675 81.8012 141.992C81.4286 144.348 81.0827 146.703 80.6692 149.053C82.0192 148.353 82.2649 146.841 83.1454 145.753C83.475 146.35 83.805 146.948 84.1358 147.545C84.6004 147.286 85.0343 147.299 85.4367 147.587C86.0881 148.583 85.6784 150.06 85.478 151.104C87.6503 150.903 88.5684 153.314 86.3785 154.29C84.1101 155.301 83.0869 152.544 83.01 150.758C82.1635 151.764 81.2941 151.226 80.704 151.742C80.1147 152.259 79.8824 153.336 79.6727 154.515C79.3279 156.452 78.4458 159.248 79.2621 161.191C80.4738 164.078 84.337 165.58 87.18 165.935ZM264.017 73.2102C261.998 76.0035 258.556 79.6601 257.835 83.0347C260.06 81.7367 264.762 75.4898 265.973 80.4659C266.669 83.3223 263.102 86.7258 262.226 89.4915C265.733 88.3436 268.232 84.7485 270.42 81.9738C273.211 78.4361 276.06 73.7728 276.772 69.2742C277.348 65.6339 274.81 62.241 271.038 61.8842C269.111 61.702 267.099 62.0062 265.237 62.4509C264.388 62.653 263.122 62.9044 262.364 63.3568C261.413 63.925 261.283 65.2552 260.387 64.1488C259.196 66.3808 258.006 68.6128 256.815 70.8439C258 70.4164 260.418 68.6014 261.713 68.7889C263.604 69.0635 263.992 71.7954 264.017 73.2102ZM74.951 18.5672C69.6572 18.7225 64.1238 19.8438 59.1123 21.5107C57.8678 21.925 52.6174 23.3984 53.7232 25.5344C54.454 26.9462 58.3941 24.9512 59.5854 24.6185C64.6906 23.1924 69.9472 22.252 75.1763 21.3937C76.4424 21.186 80.7375 21.2065 80.9592 19.5556C81.2307 17.5412 76.4461 18.565 74.951 18.5672ZM219.027 248.325C216.157 248.674 213.402 248.544 210.53 248.194C208.113 247.9 205.651 246.915 203.246 246.915C203.246 249.476 203.072 249.492 205.788 250.04C207.684 250.423 209.607 250.638 211.523 250.905C214.896 251.374 218.641 252.691 222.055 252.014C221.973 251.569 221.711 248.568 221.357 248.271C221.158 248.105 219.316 248.328 219.027 248.325ZM172.651 58.8517C173.454 59.3601 175.298 61.3879 176.254 61.4237C175.913 59.0762 173.28 54.9889 170.256 56.4395C169.515 56.7954 167.958 58.5665 168.663 59.3479C169.038 59.7657 171.668 58.8545 172.651 58.8517ZM144.676 79.7357C144.705 79.3265 144.735 78.9173 144.765 78.5085C143.656 79.1573 142.282 79.4644 141.494 80.5098C142.44 80.9272 143.386 81.345 144.333 81.7627C144.447 81.0871 144.562 80.4114 144.676 79.7357ZM232.057 142.062C237.3 143.888 242.105 146.327 245.964 150.467C249.3 154.047 250.867 160.354 251.681 165.047C253.696 176.659 249.808 187.422 247.245 198.53C245.945 204.165 244.003 209.588 242.186 215.077C240.598 219.871 239.238 224.891 237.047 229.449C235.189 233.314 232.816 237.124 231.182 241.133C230.303 243.291 228.878 250.695 225.54 248.37C224.629 250.739 224.408 250.537 225.382 252.182C226.086 253.373 228.477 255.027 229.605 255.997C232.611 258.582 236.418 260.713 239.944 262.523C246.403 265.839 253.326 268.32 259.978 271.343C262.919 272.68 266.107 274.26 265.447 278.086C264.895 281.294 263.029 283.727 260.119 285.154C257.386 286.494 253.478 287.529 250.472 287.949C248.688 288.199 248.279 287.461 246.825 287.205C245.207 286.922 243.318 287.47 241.649 287.456C234.154 287.391 227.593 285.515 221.536 281.193C219.372 279.648 216.187 275.457 213.354 275.457C211.907 275.457 212.212 276.332 210.939 276.846C209.367 277.479 206.659 276.284 205.114 276.003C201.823 275.405 198.475 274.798 196.283 271.978C193.914 268.931 194.756 265.155 195.774 261.771C196.922 257.956 198.854 254.085 199.674 250.212C199.874 249.27 200.058 247.514 199.856 246.556C199.54 245.068 198.03 244.181 197.985 242.571C197.971 242.081 198.676 241.435 198.799 240.929C199.071 239.819 199.029 238.667 199.141 237.537C199.341 235.521 199.803 233.59 200.122 231.597C200.847 227.064 202.276 223.019 203.66 218.651C205.002 214.412 206.279 211.257 208.874 207.586C210.218 205.685 214.712 198.912 212.517 196.963C209.514 202.832 206.001 207.409 201.404 212.081C197.888 215.655 194.451 220.459 190.05 223.004C185.212 225.803 179.299 227.449 173.956 228.929C171.415 229.632 169.307 231.193 166.567 231.482C163.598 231.794 160.577 231.425 157.669 230.767C156.85 230.582 154.49 229.331 153.749 229.41C152.658 229.528 151.088 231.463 149.891 231.818C146.976 232.683 144.986 231.031 142.775 229.504C140.376 227.847 139.65 227.435 136.882 227.236C133.491 226.992 130.193 225.803 126.858 225.075C120.993 223.795 116.009 221.201 110.679 218.486C104.569 215.375 99.3424 211.084 94.7369 206.014C87.9668 198.562 78.5382 177.911 89.5977 170.68C83.0869 169.801 77.1241 166.972 76.3304 159.643C75.9157 155.807 76.6964 151.558 77.666 147.861C78.1085 146.173 78.636 144.495 79.1414 142.825C79.5222 142.261 79.7238 141.644 79.7446 140.972C79.9781 140.103 79.6416 139.67 78.7341 139.674C77.0194 137.679 75.73 135.919 75.3837 133.087C75.2745 132.19 75.1767 130.814 75.8188 130.051C76.1157 129.744 76.4743 129.539 76.8927 129.436C77.8978 129.493 78.1816 129.001 77.7449 127.959C78.2328 126.483 77.5089 125.333 79.348 124.717C79.9372 124.842 80.5241 124.979 81.1085 125.126C81.8544 125.465 82.3394 125.219 82.5651 124.393C84.2974 123.719 83.4983 122.722 85.8522 123.589C87.2765 124.115 88.6318 125.019 89.6693 126.12C90.9705 125.289 88.011 120.154 87.9124 118.515C87.6781 114.653 89.2836 111.46 91.3721 108.287C95.4317 102.122 101.098 96.8209 106.686 92.051C117.389 82.9163 128.632 74.2202 140.718 66.9425C135.732 63.4983 129.908 62.5648 123.975 64.1654C118.507 65.6412 114.074 68.3215 109.04 70.6658C104.376 72.8368 99.4258 73.7288 97.9389 67.8041C96.2729 61.1675 101.588 58.7036 106.356 55.7276C105.166 54.8445 101.246 55.4758 99.764 55.5803C96.4622 55.8126 93.3043 56.5542 90.0958 57.2099C88.5569 57.5239 87.1432 57.4532 85.6187 57.7611C83.3523 58.2187 80.9858 58.7313 78.6928 59.3833C73.2375 60.9352 67.8227 63.2905 63.1088 66.4641C59.0346 69.2058 56.2079 73.0772 52.9254 76.6426C49.1819 80.7079 45.5947 84.7082 40.0449 86.1962C37.4461 86.8934 34.3974 87.526 32.5551 85.2171C30.8408 83.0701 30.7451 80.4826 30.8016 77.8576C30.9255 72.059 33.7415 65.7934 37.0171 61.0552C40.5728 55.9119 45.3354 52.9664 49.835 48.8266C43.3312 49.2891 37.0457 52.6991 31.0645 55.0564C29.8058 55.5527 28.5352 56.1104 27.2695 56.5692C25.92 57.059 25.0261 56.7592 23.733 56.9833C20.7825 57.4955 18.2478 58.7325 15.3777 56.7604C9.94747 53.0298 15.3879 45.4406 19.1267 43.1117C24.3342 39.8685 29.632 37.1378 35.3691 34.8244C32.2631 31.4734 34.9155 26.6911 37.7785 24.3138C41.4005 21.3057 46.013 19.5819 50.3777 17.9716C53.8291 16.698 57.2193 15.4752 60.8049 14.7087C64.5745 13.9033 68.9821 12.6726 72.8069 12.7906C76.3942 12.9014 79.5749 12.2727 83.208 12.1722C86.2309 12.0886 89.2607 12.1609 92.2832 12.083C100.415 11.874 108.578 12.4196 116.525 13.0013C110.228 -5.31537 151.706 0.341186 160.555 2.7337C168.597 4.90822 177.811 7.43062 184.566 12.5901C187.428 14.7754 190.146 17.26 192.685 19.8095C196.431 23.5711 198.505 28.4974 200.486 33.3596C205.512 30.9108 210.317 28.2421 215.816 27.0277C221.049 25.8727 226.409 24.3071 231.672 23.4344C235.673 22.7708 241.481 22.3206 244.849 25.1311C248.507 28.1839 250.412 32.9345 252.596 37.0027C263.081 27.1062 274.776 19.8863 289.726 20.3664C304.355 20.8363 313.974 33.4023 315.748 47.0189C317.701 62.0233 310.982 77.7014 301.874 89.3207C297.79 94.5315 293.564 99.5642 288.067 103.452C285.341 105.379 282.465 107.49 279.476 108.995C277.986 109.745 276.356 110.422 274.791 111C274.085 111.26 273.358 111.522 272.624 111.698C270.527 112.204 270.934 111.529 270.154 113.355C269.521 114.838 269.599 117.388 269.328 119.016C269.018 120.875 268.834 122.761 268.382 124.595C267.599 127.775 266.783 130.877 265.802 133.982C263.945 139.859 261.446 145.782 258.384 151.143C260.981 152.265 264.616 152.378 267.391 152.718C270.394 153.085 273.401 153.858 276.521 154.726C282.771 156.464 288.356 157.931 294.3 160.534C300.471 163.236 305.97 167.27 311.911 170.481C317.375 173.434 322.898 177.133 327.972 180.677C329.179 181.521 329.927 182.254 330.888 183.322C331.871 184.413 332.184 184.626 333.358 185.572C333.888 185.998 335.429 188.147 336.034 188.226C337.117 188.369 336.951 187.565 337.801 186.442C339.576 184.098 342.053 182.282 343.816 179.879C345.286 177.875 346.82 175.846 348.392 174.122C352.196 169.952 355.348 165.329 358.052 160.33C359.46 157.727 360.942 155.25 362.47 152.794C363.992 150.348 366.697 147.12 369.728 147.265C369.484 146.02 368.71 145.812 370.046 145.051C370.906 144.56 372.581 145.351 373.245 145.849C375.002 147.168 375.078 149.728 374.967 151.651C374.682 156.606 373.64 161.497 372.187 166.182C370.441 171.814 368.252 176.783 365.863 182.159C363.962 186.441 361.6 192.104 356.869 194.058C360.046 198.572 358.52 202.249 356.396 207.041C354.844 210.544 352.793 214.164 349.67 216.482C346.15 219.095 342.332 216.878 338.65 215.151C336.426 214.108 329.626 211.645 331.009 208.435C329.31 208.209 328.242 206.982 326.696 206.604C325.059 206.204 325.34 206.865 323.608 207.113C322.28 207.303 320.294 206.121 319.043 205.697C316.955 204.991 314.872 204.266 312.787 203.551C306.916 201.54 301.145 199.56 295.216 197.948C284.186 194.95 273.019 193.25 262.028 190.573C259.824 190.036 257.634 189.518 255.34 189.088C254.866 189 252.408 188.863 252.109 188.359C251.586 187.475 253.194 182.529 253.332 181.521C254.238 174.903 253.942 167.659 252.666 161.117C252.136 158.397 249.769 154.876 249.789 152.221C249.803 150.44 251.39 148.496 252.321 146.882C254.625 142.894 257.039 138.585 258.746 134.434C261.359 128.084 262.959 120.916 264.114 114.116C264.715 110.57 265.414 106.727 265.578 103.141C265.703 100.407 265.477 97.5393 265.876 94.7394C264.355 94.883 262.203 95.6669 260.833 94.8277C259.103 93.7688 258.638 90.7452 258.859 88.9395C252.935 89.9679 253.132 84.3799 253.499 80.0099C242.792 80.0099 256.503 64.1846 258.217 60.7863C259.004 59.2239 258.98 60.9787 258.633 58.5625C258.48 57.5004 257.75 56.3231 257.337 55.3465C256.438 53.2145 255.465 51.1151 254.426 49.0467C252.23 44.6778 249.744 40.4567 247.029 36.3865C244.586 38.0799 242.384 40.0845 240.344 42.2351C241.653 38.8304 245.652 34.6125 243.941 30.7465C242.356 27.1627 237.062 27.4112 233.935 28.0664C225.438 29.8483 217.29 32.4435 209.195 35.4484C211.703 36.8787 215.541 35.7738 218.033 34.6804C221.117 33.3258 224.435 31.905 227.759 31.1874C230.659 30.5618 234.467 30.7753 233.629 34.6601C232.95 37.8077 229.855 40.8391 227.812 43.1927C223.313 48.3779 217.671 52.392 212.129 56.4029C206.171 60.7143 200.431 65.3988 194.398 69.5854C183.493 77.1539 171.767 83.7315 160.5 90.7961C154.645 94.4669 148.011 97.4209 141.661 100.141C134.677 103.134 127.98 106.338 120.733 108.702C116.709 110.015 112.72 111.096 108.766 112.59C106.287 113.526 101.971 115.401 100.333 112.622C97.0069 106.977 109.043 99.5524 112.342 96.1009C114.617 98.2991 103.396 106.49 104.275 109.691C104.965 112.206 107.634 108.958 108.923 108.273C111.005 107.165 113.472 106.608 115.566 105.344C119.859 102.751 124.95 99.7607 125.93 94.4006C125.248 93.6846 125.256 93.0236 125.956 92.4175C126.267 92.0494 126.514 91.645 126.696 91.2041C127.001 90.3616 127.124 89.3069 127.287 88.4136C127.771 85.774 126.557 83.3024 127.691 80.7189C121.074 85.706 114.714 91.3395 108.433 96.7383C102.799 101.581 96.9198 107.922 94.8493 115.148C94.5843 116.074 94.1435 117.124 94.1917 118.102C94.2858 120.02 94.4784 119.606 96.032 120.223C97.586 120.84 99.8486 120.787 101.52 120.852C102.472 120.889 106.726 119.886 105.88 121.965C105.393 123.164 102.444 123.118 101.388 123.229C98.738 123.507 97.3009 123.222 98.5564 126.079C99.1191 127.359 100.259 128.227 101.154 129.218C103.643 131.976 104.995 136.205 106.953 139.444C109.184 143.135 111.636 146.645 114.241 150.082C115.316 151.5 116.754 154.166 118.244 155.178C119.636 156.123 117.998 156.045 120.31 155.661C121.318 155.494 122.231 154.842 123.195 154.608C128.958 153.212 134.882 151.638 140.842 149.914C148.465 147.709 156.465 145.828 163.739 142.653C170.255 139.808 176.722 136.42 183.306 133.539C185.229 132.698 187.149 132.14 188.644 130.593C190.447 128.725 191.941 126.279 193.604 124.271C196.434 120.855 199.042 117.382 202.087 114.145C204.354 111.736 208.372 107.259 211.57 106.298C217.647 104.472 214.394 113.679 213.609 116.006C215.038 116.329 215.788 114.506 217.465 115.03C219.472 115.658 219.68 118.314 219.931 119.978C219.998 120.421 219.395 121.25 219.578 121.645C219.641 121.78 220.95 122.551 221.203 122.908C222.12 124.205 221.94 125.782 221.592 127.181C219.794 134.428 213.401 139.719 208.7 145.065C210.803 144.669 212.363 143.477 214.348 142.886C216.212 142.331 218.085 142.36 219.963 142.201C221.93 142.035 223.819 141.303 225.831 141.266C227.942 141.227 229.963 141.825 232.057 142.062Z" fill="black"/>
<path fill-rule="evenodd" clip-rule="evenodd" d="M9.70691 76.8814C8.54756 77.6351 8.22078 78.3746 8.18074 80.1136C8.16471 80.8267 8.21415 83.4875 9.21622 83.387C10.1566 83.293 9.70691 77.7962 9.70691 76.8814ZM3.71803 81.2148C4.25825 75.6415 6.30811 69.9746 11.1303 66.502C12.3229 65.6432 13.6719 65.6738 14.979 65.1319C15.7645 64.8065 17.0055 63.2933 17.8973 63.4723C21.18 64.1329 17.3874 68.4716 16.832 69.613C15.1109 73.1492 15.2271 76.2561 15.2785 80.0709C15.3177 82.97 15.9233 87.8575 14.4539 90.4816C12.8876 93.2758 9.49042 91.4611 7.59411 89.8076C5.20086 87.7196 3.39333 84.395 3.71803 81.2148Z" fill="black"/>
<path fill-rule="evenodd" clip-rule="evenodd" d="M61.3454 97.6849C61.3454 100.795 63.8829 98.6892 63.7925 96.4772C63.6596 93.2205 61.2268 95.2259 61.3454 97.6849ZM74.836 80.492C72.0589 82.9766 69.9164 84.3706 69.3811 88.1911C68.9759 91.0849 69.3787 93.9511 69.3958 96.8661C69.4249 101.752 65.4581 106.889 61.1896 101.288C58.0759 97.2029 59.1927 90.779 61.7319 86.673C63.0642 84.5191 64.9662 82.388 67.1634 81.0456C68.816 80.0351 73.4648 78.0472 74.836 80.492Z" fill="black"/>
<path fill-rule="evenodd" clip-rule="evenodd" d="M36.0487 155.797C35.7268 156.554 34.9707 159.648 36.5132 158.949C37.8746 158.33 36.9925 156.279 36.0487 155.797ZM27.8997 146.244C27.6617 145.081 27.7586 137.787 29.7784 138.334C31.3646 138.763 31.6268 142.497 32.2729 143.796C34.6795 148.634 40.2031 151.647 42.108 156.641C44.2341 162.218 37.8059 162.392 34.3949 160.133C30.3562 157.459 28.0195 150.911 27.8997 146.244Z" fill="black"/>
<path fill-rule="evenodd" clip-rule="evenodd" d="M22.9486 116.339C23.825 115.162 23.9137 114.533 23.414 113.492C22.7752 114.183 22.8885 115.17 22.9486 116.339ZM23.5829 121.605C19.0134 122.114 18.7846 113.738 19.5671 110.862C20.1903 108.571 21.53 106.11 22.9094 104.244C23.1879 103.867 25.8296 100.483 26.3473 100.475C28.3348 100.444 27.7889 102.677 27.5742 103.509C26.899 106.128 26.6316 108.318 26.8131 111.222C27.0082 114.33 28.4877 121.708 23.5829 121.605Z" fill="black"/>
<path fill-rule="evenodd" clip-rule="evenodd" d="M231.053 49.065C224.519 54.5154 218.316 60.4162 211.211 65.1836C207.735 67.5169 204.101 69.5809 200.632 71.952C198.865 73.1598 197.062 74.241 195.102 75.1286C193.371 75.9128 192.239 76.0149 193.676 74.1535C194.636 72.91 196.788 72.0436 198.096 71.1596C200.109 69.7981 202.01 68.2882 204.128 67.0804C207.861 64.9501 211.571 63.2303 215.012 60.6179C218.066 58.2997 221.217 56.0364 224.132 53.5725C225.382 52.5161 229.527 47.6657 231.053 49.065Z" fill="black"/>
<path fill-rule="evenodd" clip-rule="evenodd" d="M231.184 68.7458C234.123 71.2459 226.771 78.0952 225.095 79.6475C223.327 81.2848 221.38 82.7451 219.457 84.1953C218.78 84.7062 215.087 88.1244 214.15 87.8486C212.301 87.3039 214.729 85.0861 215.36 84.5081C217.402 82.6353 219.488 80.8178 221.484 78.8945C223.285 77.1617 225.234 75.5569 226.976 73.7679C228.386 72.3185 229.571 69.8628 231.184 68.7458Z" fill="black"/>
<path fill-rule="evenodd" clip-rule="evenodd" d="M13.4949 169.528C12.7277 167.76 11.3537 169.723 12.0503 170.606C12.7091 171.442 13.3968 169.868 13.4949 169.528ZM8.99652 166.036C9.40779 163.436 10.3583 161.991 12.8105 164.21C14.4955 165.735 17.8845 170.072 17.5629 172.436C17.1408 175.537 13.7073 174.657 11.9274 173.036C10.103 171.374 9.29754 168.342 8.99652 166.036Z" fill="black"/>
<path fill-rule="evenodd" clip-rule="evenodd" d="M14.3702 217.21C11.3662 216.983 8.80335 214.689 7.52766 212C6.45431 209.739 5.43837 206.095 9.20927 207.283C11.6669 208.058 21.1411 217.575 14.3702 217.21Z" fill="black"/>
<path fill-rule="evenodd" clip-rule="evenodd" d="M50.776 202.47C48.4544 202.996 46.1582 201.476 44.7306 199.761C43.8423 198.692 41.7751 194.948 42.8167 193.407C44.2685 191.257 46.4604 195.578 47.2165 196.433C48.4025 197.773 52.2809 200.335 50.776 202.47Z" fill="black"/>
<path fill-rule="evenodd" clip-rule="evenodd" d="M52.8668 144C51.047 143.16 49.3577 142.149 48.6257 140.143C48.1603 138.865 47.7694 135.033 49.8362 135.051C52.2268 135.072 57.7009 143.616 52.8668 144Z" fill="black"/>
<path fill-rule="evenodd" clip-rule="evenodd" d="M40.1087 104.137C42.5452 104.093 43.1222 105.43 43.4608 107.35C43.691 108.653 44.807 113.078 43.6481 113.984C41.9919 115.279 39.3571 112.312 38.8246 111.147C37.727 108.748 39.2446 106.39 40.1087 104.137Z" fill="black"/>
<path fill-rule="evenodd" clip-rule="evenodd" d="M81.9758 236.802C83.1621 237.339 85.8612 238.529 84.8298 240.377C83.7514 242.309 80.6553 240.432 79.4988 239.587C79.0147 239.234 75.9386 236.92 76.0674 236.144C76.3385 234.495 80.5789 236.647 81.9758 236.802Z" fill="black"/>
<path fill-rule="evenodd" clip-rule="evenodd" d="M3.81396 116.139C4.62465 118.158 5.5372 125.095 1.26817 121.349C-0.0345959 120.206 -0.231216 118.778 0.217639 117.208C0.866672 114.934 1.81121 115.385 3.81396 116.139Z" fill="black"/>
<path fill-rule="evenodd" clip-rule="evenodd" d="M230.046 90.3051C229.1 88.3839 231.434 87.1448 232.681 85.9066C233.496 85.0979 236.92 80.7116 238.042 80.9593C240.351 81.469 231.181 89.4484 230.046 90.3051Z" fill="black"/>
<path fill-rule="evenodd" clip-rule="evenodd" d="M40.078 229.459C42.3055 229.103 42.8252 231.564 44.2602 232.637C44.8757 233.097 46.9883 233.502 46.5634 234.479C45.447 237.044 39.9688 231.183 40.078 229.459Z" fill="black"/>
<path fill-rule="evenodd" clip-rule="evenodd" d="M58.8877 171.332C60.4188 170.695 64.8378 174.119 63.5689 175.599C61.6722 177.812 58.9957 172.543 58.8877 171.332Z" fill="black"/>
<path fill-rule="evenodd" clip-rule="evenodd" d="M91.1601 220.876C90.0441 220.986 85.3344 219.513 87.0793 217.542C88.3045 216.157 91.5605 219.622 91.1601 220.876Z" fill="black"/>
<path fill-rule="evenodd" clip-rule="evenodd" d="M34.7601 211.415C33.6523 211.855 29.6561 210.949 30.9124 209.223C32.1094 207.579 34.7618 210.05 34.7601 211.415Z" fill="black"/>
<path fill-rule="evenodd" clip-rule="evenodd" d="M67.4755 218.862C68.7711 218.729 69.7067 219.506 69.9292 220.821C68.3089 221.051 67.8092 220.668 67.4755 218.862Z" fill="black"/>
<path fill-rule="evenodd" clip-rule="evenodd" d="M235.96 27.8606C236.507 27.8632 237.053 27.8662 237.596 27.8688C237.048 27.8658 236.504 27.8632 235.96 27.8606Z" fill="black"/>
<path fill-rule="evenodd" clip-rule="evenodd" d="M227.372 141.151C226.554 141.152 225.736 141.154 224.918 141.154C225.737 141.153 226.555 141.152 227.372 141.151Z" fill="black"/>
<path fill-rule="evenodd" clip-rule="evenodd" d="M115.788 8.54239C115.75 9.35688 115.712 10.1714 115.674 10.9831C115.711 10.1679 115.749 9.35477 115.788 8.54239Z" fill="black"/>
<path fill-rule="evenodd" clip-rule="evenodd" d="M369.196 146.847C369.457 147.753 369.075 147.903 368.048 147.297C368.43 147.147 368.813 146.998 369.196 146.847Z" fill="black"/>
<path fill-rule="evenodd" clip-rule="evenodd" d="M345.965 217.827C346.376 217.829 346.786 217.832 347.192 217.835C346.78 217.832 346.373 217.829 345.965 217.827Z" fill="black"/>
<path fill-rule="evenodd" clip-rule="evenodd" d="M268.266 152.349C267.58 152.869 266.898 152.942 266.222 152.322C266.903 152.331 267.585 152.34 268.266 152.349Z" fill="black"/>
<path fill-rule="evenodd" clip-rule="evenodd" d="M252.957 82.9831C252.94 83.662 252.922 84.3405 252.904 85.017C252.921 84.3372 252.939 83.6599 252.957 82.9831Z" fill="black"/>
<path fill-rule="evenodd" clip-rule="evenodd" d="M288.304 20.2174C287.623 20.217 286.941 20.2162 286.26 20.2154C286.942 19.9607 287.624 20.0443 288.304 20.2174Z" fill="black"/>
<path fill-rule="evenodd" clip-rule="evenodd" d="M88.3316 11.9402C87.6503 11.9802 86.9682 12.0202 86.2869 12.0602C86.9682 12.0202 87.6503 11.9802 88.3316 11.9402Z" fill="black"/>
<path fill-rule="evenodd" clip-rule="evenodd" d="M105.098 12.0697C104.553 12.0235 104.007 11.977 103.462 11.9309C104.007 11.977 104.552 12.0235 105.098 12.0697Z" fill="black"/>
<path fill-rule="evenodd" clip-rule="evenodd" d="M114.095 12.7138C113.55 12.9167 113.005 13.0367 112.459 12.7167C113.005 12.7159 113.55 12.7147 114.095 12.7138Z" fill="black"/>
<path fill-rule="evenodd" clip-rule="evenodd" d="M65.4308 13.8277C64.7486 13.9656 64.0673 14.1035 63.386 14.2401C64.0682 14.1035 64.7495 13.9656 65.4308 13.8277Z" fill="black"/>
<path fill-rule="evenodd" clip-rule="evenodd" d="M253.368 179.39C253.349 179.797 253.33 180.205 253.312 180.61C253.331 180.202 253.349 179.796 253.368 179.39Z" fill="black"/>
<path fill-rule="evenodd" clip-rule="evenodd" d="M28.0011 146.441C28.0093 146.712 28.017 146.984 28.0244 147.254C28.0154 146.982 28.0089 146.711 28.0011 146.441Z" fill="black"/>
<path fill-rule="evenodd" clip-rule="evenodd" d="M371.729 144.981L369.684 144.992C370.364 144.487 371.046 144.551 371.729 144.981Z" fill="black"/>
<path fill-rule="evenodd" clip-rule="evenodd" d="M231.87 142.101C231.324 142.011 230.779 141.922 230.234 141.832C230.779 141.922 231.325 142.011 231.87 142.101Z" fill="black"/>
<path fill-rule="evenodd" clip-rule="evenodd" d="M82.1974 236.74C81.5157 236.609 80.8344 236.476 80.1527 236.344L82.1974 236.74Z" fill="black"/>
<path fill-rule="evenodd" clip-rule="evenodd" d="M219.825 120C219.813 119.593 219.8 119.186 219.788 118.78C219.8 119.187 219.813 119.594 219.825 120Z" fill="black"/>
<path fill-rule="evenodd" clip-rule="evenodd" d="M90.3762 12.0756C89.9673 12.0254 89.5579 11.9752 89.1494 11.925C89.5579 11.9752 89.9673 12.0254 90.3762 12.0756Z" fill="black"/>
<path fill-rule="evenodd" clip-rule="evenodd" d="M157.443 2.01542C157.034 1.89217 156.625 1.76891 156.216 1.64566C156.625 1.76891 157.034 1.89217 157.443 2.01542Z" fill="black"/>
<path fill-rule="evenodd" clip-rule="evenodd" d="M206.107 276.382C206.381 276.399 206.655 276.415 206.925 276.432C206.65 276.415 206.378 276.398 206.107 276.382Z" fill="black"/>
<path fill-rule="evenodd" clip-rule="evenodd" d="M18.4024 57.9499C18.813 57.9605 19.2236 57.9715 19.6292 57.9825C19.2166 57.9715 18.8095 57.9605 18.4024 57.9499Z" fill="black"/>
<path fill-rule="evenodd" clip-rule="evenodd" d="M292.803 20.6145C292.121 20.5667 291.44 20.519 290.758 20.4708C291.44 20.519 292.121 20.5667 292.803 20.6145Z" fill="black"/>
<path fill-rule="evenodd" clip-rule="evenodd" d="M77.2901 18.7094C76.3336 18.7112 75.3783 18.7129 74.4275 18.7146C75.3861 18.7129 76.3381 18.7112 77.2901 18.7094Z" fill="black"/>
<path fill-rule="evenodd" clip-rule="evenodd" d="M270.496 102.508C270.508 103.187 270.522 103.866 270.535 104.542C270.523 103.863 270.511 103.185 270.496 102.508Z" fill="black"/>
<path fill-rule="evenodd" clip-rule="evenodd" d="M220.42 248.149C219.873 248.141 219.327 248.132 218.784 248.123C219.332 248.13 219.876 248.14 220.42 248.149Z" fill="black"/>
<path fill-rule="evenodd" clip-rule="evenodd" d="M278.49 32.6213C279.308 32.531 280.125 32.4407 280.943 32.3504C280.158 33.0411 279.31 32.5815 278.49 32.6213Z" fill="black"/>
<path fill-rule="evenodd" clip-rule="evenodd" d="M215.922 248.362C215.511 248.346 215.102 248.331 214.695 248.316C215.107 248.332 215.514 248.346 215.922 248.362Z" fill="black"/>
<path fill-rule="evenodd" clip-rule="evenodd" d="M201.782 255.458C201.803 256.137 201.823 256.815 201.844 257.492C201.824 256.811 201.803 256.135 201.782 255.458Z" fill="black"/>
<path fill-rule="evenodd" clip-rule="evenodd" d="M264.177 57.5997C264.722 57.5491 265.268 57.4985 265.813 57.4483C265.315 57.8312 264.731 57.6071 264.177 57.5997Z" fill="black"/>
<path fill-rule="evenodd" clip-rule="evenodd" d="M85.469 165.817C86.0141 165.917 86.5601 166.016 87.1048 166.115C86.5596 166.016 86.0141 165.917 85.469 165.817Z" fill="black"/>
<path fill-rule="evenodd" clip-rule="evenodd" d="M170.529 58.7813C171.21 58.2045 171.891 58.2671 172.574 58.7748C171.892 58.7764 171.211 58.7789 170.529 58.7813Z" fill="black"/>
<path fill-rule="evenodd" clip-rule="evenodd" d="M144.94 79.322C144.96 79.0507 144.979 78.7794 145 78.5085C144.981 78.7802 144.961 79.0511 144.94 79.322Z" fill="black"/>
<path fill-rule="evenodd" clip-rule="evenodd" d="M263.964 71.5932C263.97 72.1367 263.975 72.6797 263.981 73.2203C263.976 72.6757 263.97 72.1347 263.964 71.5932Z" fill="black"/>
<path fill-rule="evenodd" clip-rule="evenodd" d="M83.5404 156.623C84.4377 156.925 86.2423 157.839 87.288 157.718C88.1251 157.621 88.815 156.609 89.6222 156.61C91.7958 156.613 91.3925 159.112 90.3424 160.454C87.5023 164.083 81.1559 160.148 83.5404 156.623Z" fill="black"/>
<path fill-rule="evenodd" clip-rule="evenodd" d="M92.4115 143.593C95.3755 144.354 93.8993 150.84 91.4076 151.285C88.4738 151.811 87.9626 146.538 88.5421 144.631C90.0519 145.524 89.1171 148.707 91.0199 147.827C92.23 147.267 92.0459 144.678 92.4115 143.593Z" fill="black"/>
</svg>
