<svg width="375" height="288" viewBox="0 0 375 288" fill="none" xmlns="http://www.w3.org/2000/svg">
<path fill-rule="evenodd" clip-rule="evenodd" d="M116.903 130.807C118.268 144.578 119.633 158.349 120.997 172.119C128.426 167.882 135.855 163.645 143.284 159.408V190.779V199.025C143.284 199.754 142.851 202.261 143.284 202.893C143.652 203.428 146.374 203.444 147.017 203.534C151.218 204.122 155.428 204.645 159.645 205.11C170.757 206.337 182.651 208.094 193.807 206.685C203.503 205.459 212.903 202.012 221.762 198.001C224.873 196.593 227.94 195.086 230.95 193.475C231.588 193.134 233.904 192.327 234.251 191.632C234.535 191.064 233.87 189.069 233.781 188.472C233.407 185.956 233.032 183.44 232.658 180.924L227.429 145.788L237.306 155.647C238.08 156.419 239.549 158.612 240.62 158.954C241.405 159.205 243.349 158.428 244.125 158.279C249.717 157.202 255.31 156.124 260.902 155.047C262.205 154.796 265.142 154.806 266.24 154.019C266.832 153.595 266.859 152.733 267.068 151.916C268.432 146.574 269.796 141.233 271.16 135.893C271.406 134.93 272.777 131.897 272.428 130.928C272.303 130.581 271.698 130.344 271.328 130.117C262.888 124.964 254.446 119.811 246.006 114.658C241.382 111.836 236.758 109.013 232.134 106.19C230.197 105.007 227.818 102.877 225.623 102.215C224.261 101.805 222.279 102.112 220.869 102.072C218.004 101.99 215.139 101.909 212.274 101.827C211.826 101.814 210.255 101.495 209.877 101.759C209.563 101.979 209.693 102.285 209.59 102.809C209.338 104.088 209.336 105.468 209.212 106.767C209.113 107.809 209.31 109.72 208.841 110.663C208.54 111.266 208.921 111.026 208.515 111.318C208.031 111.665 206.488 111.553 205.912 111.62C203.105 111.946 200.298 112.271 197.49 112.597C194.152 112.985 190.777 113.712 187.424 113.377C182.34 112.87 176.859 112.895 171.867 111.825C170.57 111.546 170.103 110.815 169.102 109.817C167.149 107.867 165.215 105.895 163.24 103.967C162.273 103.022 162.687 103.182 161.689 103.54C160.439 103.989 159.171 105.074 158.039 105.762C153.704 108.402 149.368 111.042 145.031 113.682L118.56 129.799C118.008 130.135 117.456 130.471 116.903 130.807Z" fill="#FF7A00"/>
<path fill-rule="evenodd" clip-rule="evenodd" d="M370.099 132.519C364.642 153.226 353.667 175.804 331.556 182.405C326.18 184.009 320.951 185.221 315.367 184.61C314.836 184.551 314.391 184.626 313.886 184.636C312.98 184.653 313.762 184.978 312.746 184.665C311.954 184.42 311.214 183.809 310.388 183.539C308.194 182.821 305.855 182.683 303.625 182.103C298.146 180.678 292.5 178.919 287.191 176.955C284.691 176.03 282.394 174.741 280.042 173.502C277.652 172.243 275.119 171.461 272.702 170.306C270.791 169.393 267.519 168.203 266.176 166.49C264.744 164.664 266.725 160.776 267.292 158.834C269.217 152.227 271.511 145.717 272.958 138.979C277.956 144.768 284.893 148.353 292.074 150.666C295.97 151.92 299.979 152.827 304.031 153.395C307.711 153.91 311.68 154.534 315.369 153.803C318.153 153.25 321.648 151.971 323.637 149.847C324.346 149.088 325.198 147.698 324.8 146.597C324.295 145.199 322.824 145.857 322.029 144.813C321.335 143.904 321.444 141.778 321.223 140.672C320.832 138.713 320.295 136.807 319.64 134.922C318.368 131.26 316.782 127.591 316.402 123.695C316.072 120.315 316.842 117.119 318.529 114.186C319.326 112.799 321.328 109.027 323.282 109.184C325.428 109.356 322.534 118.394 322.44 120.238C322.065 127.547 323.046 135.335 326.798 141.741C328.235 144.194 330.313 147.05 333.38 147.354C336.629 147.675 339.25 145.12 340.797 142.535C344.57 136.228 342.668 127.572 340.757 120.962C338.412 112.851 332.293 107.26 328.424 99.9757C334.201 100.556 337.294 104.224 340.259 108.877C343.523 114 346.063 120.151 347.316 126.112C347.949 129.124 347.512 132.148 347.516 135.189C347.517 136.2 347.517 139.927 349.165 139.78C350.927 139.623 351.531 135.42 351.79 134.137C352.383 131.195 353.026 128.253 353.542 125.297C354.454 120.067 354.86 114.71 355.953 109.516C356.137 108.638 356.505 106.202 357.82 106.86C358.834 107.367 358.671 111.134 358.708 112.01C358.799 114.168 358.927 116.326 358.945 118.486C358.971 121.688 358.332 125.002 358.645 128.184C358.85 130.264 359.966 132.561 361.351 129.757C362.723 126.976 363.003 123.508 363.768 120.517C364.572 117.377 365.402 114.191 367.108 111.402C367.582 110.628 368.091 109.4 369.142 109.764C369.907 110.029 370.471 111.839 370.707 112.478C371.773 115.366 371.592 118.577 371.525 121.6C371.443 125.305 371.045 128.927 370.099 132.519ZM263.691 137.893C263.399 137.799 262.161 137.681 261.853 137.654C261.493 137.623 261.902 136.96 261.03 137.148C261.199 137.565 261.497 137.843 261.927 137.983C260.617 138.426 259.65 137.332 258.754 137.191C257.897 137.056 257.861 137.191 257.015 138.096C256.098 136.979 256.27 137.675 255.516 137.676C255.242 137.676 255.23 138.09 254.784 138.041C254.394 137.997 254.353 137.406 254.123 137.337C252.872 136.959 251.586 138.862 250.167 137.211C249.824 138.929 245.886 136.777 244.371 137.079C242.783 137.395 243.468 137.964 242.185 136.991C240.962 136.065 241.303 136.68 239.881 137.439C239.914 137.421 239.078 137.985 239.155 137.994C238.171 137.879 238.227 136.862 236.98 136.916C235.66 136.973 235.096 138.007 233.888 136.734C233.626 137.687 233.571 137.277 232.953 137.517C232.612 137.598 232.314 137.508 232.059 137.249C231.981 137.511 231.811 137.672 231.548 137.731C230.874 137.791 229.609 137.885 228.996 137.561C228.077 137.074 228.816 136.886 228.179 136.339C227.893 137.849 227.267 137.528 225.947 137.669C224.94 137.777 224.718 137.468 223.756 137.318C222.809 137.17 221.585 137.538 220.66 137.694C220.279 137.759 219.768 138.025 219.38 137.932C219.03 137.847 218.88 137.576 218.671 137.505C218.417 137.419 218.471 137.197 218.032 137.09C217.73 137.016 217.188 137.3 216.886 137.349C214.732 137.698 212.663 137.702 210.608 136.855C211.62 138.633 208.242 137.673 207.639 136.936C206.887 138.115 205.976 137.283 204.459 137.375C202.998 137.464 200.8 137.911 200.208 136.092C200.092 136.462 199.262 137.535 198.932 137.699C197.975 138.173 197.86 137.471 196.97 137.185C195.758 136.796 196.011 137.535 195.259 137.685C193.99 137.939 193.305 137.046 192.183 136.571C192.136 137.309 192.112 137.763 191.473 138.223C190.908 136.165 188.89 138.391 189.236 135.641C188.469 136.141 187.389 136.525 187.17 137.535C188.454 137.182 187.307 138.021 187.253 138.048C187.084 138.137 186.51 137.333 186.377 137.22C186.341 137.599 186.305 137.978 186.269 138.358C185.757 138.102 185.277 137.644 184.862 137.415C184.488 137.209 185.024 136.779 184.392 136.749C184.059 136.733 183.711 137.454 183.362 137.516C182.827 137.609 183.084 136.843 182.86 136.869C182.52 136.908 181.964 137.406 181.706 137.396C180.862 137.365 181.433 136.972 180.789 136.792C179.636 136.469 179.71 137.223 178.882 137.494C176.987 138.116 177.177 135.255 175.249 137.163C174.788 137.62 174.491 138.325 173.859 138.286C172.551 138.203 173.01 136.653 173.276 135.894C173.551 136.029 168.495 138.625 168.535 138.524C168.567 137.901 169.362 137.421 168.652 136.868C168.07 138.114 167.459 138.136 166.119 138.368C165.467 138.481 165.339 138.632 164.642 138.361C164.198 138.189 163.9 137.481 163.458 137.442C163.518 137.448 162.707 138.064 162.584 138.119C161.852 138.449 161.39 138.075 160.679 138.211C160.073 138.326 159.834 138.842 159.231 138.7C158.427 138.512 158.899 137.552 157.793 137.82C157.414 137.912 157.187 138.64 156.59 138.791C155.661 139.026 154.522 138.587 153.54 138.816C152.76 138.998 152.182 139.075 151.5 139.113C150.949 139.144 151.176 138.716 150.162 139.221L149.732 138.138C149.224 138.594 148.717 139.05 148.209 139.507C148.113 139.097 148.052 138.683 148.026 138.264C147.269 139.022 146.316 139.151 145.298 139.219C144.197 139.293 143.376 139.533 142.303 139.735C141.965 139.798 141.091 139.9 140.813 139.781C140.854 139.798 140.291 139.565 140.461 139.609C140.388 139.461 140.32 139.309 140.257 139.156C140.163 138.728 139.855 138.71 139.335 139.099C139.066 139.058 138.545 138.705 138.277 138.792C137.585 139.016 137.679 139.552 136.99 139.474C136.543 139.422 136.315 138.762 135.849 138.717C135.137 138.649 134.52 139.446 133.878 139.62C135.829 139.09 131.347 139.501 132.74 139.537C131.827 139.514 130.878 139.468 130.033 139.878C129.567 139.559 130.133 138.918 129.662 138.654C129.234 138.415 129.201 139.047 129.151 139.06C129.421 138.984 129.286 139.522 129.017 139.617C128.176 139.915 127.502 139.158 127.459 138.406C126.745 139.481 126.544 139.049 125.493 139.116C124.456 139.181 123.562 139.724 122.526 139.714C120.475 139.695 119.083 138.982 118.399 137.152C120.584 137.419 122.783 136.014 124.92 136.345C125.622 136.453 126.061 136.981 126.676 136.887C127.434 136.772 127.964 135.945 128.936 135.856C131.079 135.66 133.193 135.851 135.351 135.523C137.93 135.13 140.62 134.897 143.224 135.089C145.235 135.237 146.864 134.468 148.904 134.32C151.541 134.128 154.201 134.094 156.843 133.955C159.557 133.813 162.479 133.38 165.186 133.519C166.031 133.562 166.758 133.645 167.597 133.594C167.952 133.573 168.288 133.332 168.66 133.368C169.145 133.415 169.353 133.911 169.856 133.894C170.71 133.865 171.624 133.161 172.639 133.142C174.309 133.11 175.972 133.114 177.647 133.019C179.121 132.935 180.7 132.591 182.168 132.61C183.203 132.623 183.458 133.504 184.061 133.595C185.146 133.759 190.633 130.638 191.107 133.439C193.964 131.485 197.795 133.139 200.975 132.772C205.059 132.3 209.219 132.721 213.332 132.553C217.516 132.382 221.821 132.54 225.989 132.935C227.716 133.098 229.384 133.251 231.115 133.152C231.887 133.108 232.779 132.911 233.551 133.089C233.738 133.132 235.169 134.131 234.992 134.159C235.774 133.458 235.245 133.355 236.62 133.319C237.68 133.291 238.683 133.52 239.737 133.583C241.63 133.694 243.537 133.432 245.425 133.49C247.001 133.538 248.543 133.771 250.128 133.782C251.836 133.795 253.854 133.843 255.09 135.219C254.959 134.787 254.829 134.355 254.698 133.923C256.605 134.072 258.49 134.752 260.418 134.434C259.93 134.901 259.435 135.282 259.249 135.967C260.288 135.835 260.992 135.11 262.086 135.104C263.006 135.099 263.197 135.559 264.168 134.964C264.287 135.694 264.407 136.423 264.526 137.153C265.87 136.836 264.988 135.835 265.086 134.932C266.179 135.26 267.104 134.883 266.673 136.454C266.341 137.665 264.829 138.262 263.691 137.893ZM261.802 151.383C261.333 152.699 257.279 151.947 256.32 151.808C255.082 151.629 253.665 151.344 252.524 151.203C252.387 151.02 252.223 150.866 252.032 150.739C251.888 150.938 251.707 151.08 251.488 151.163C250.964 151.278 250.962 151.818 250.274 151.699C250.242 152.499 250.798 152.044 251.223 152.334C250.15 153.053 250.641 152.226 250.039 152.239C249.89 152.027 249.682 151.944 249.416 151.99C249.077 152.078 248.764 152.223 248.478 152.425C248.21 152.708 247.98 152.723 247.789 152.47C247.606 152.285 247.382 152.172 247.118 152.129C246.061 152.3 245.765 152.769 244.575 152.692C242.875 152.583 241.035 153.031 239.361 152.795C238.324 152.649 236.59 151.02 236.119 152.608C235.402 151.431 234.259 150.63 233.573 149.427C236.772 149.242 239.969 149.021 243.171 148.906C245.974 148.805 249.041 149.121 251.66 148.988C254.114 148.865 256.712 148.594 259.218 148.37C261.873 148.133 262.752 148.715 261.802 151.383ZM178.351 151.577C179.512 151.898 180.618 151.17 181.745 151.4C182.117 151.476 182.888 152.154 183.058 152.167C183.368 152.192 184.28 151.527 184.671 151.437C187.145 150.875 190.142 150.934 192.616 151.28C193.927 151.463 194.128 150.864 195.272 150.573C196.461 150.269 198.152 150.503 199.404 150.419C202.35 150.222 205.294 150.362 208.22 150.147C211.224 149.926 214.213 149.806 217.219 149.652C219.266 149.547 224.185 148.379 225.882 149.898C227.281 151.151 225.479 153.325 224.079 153.822C223.032 154.192 222.531 153.411 221.754 153.486C220.869 153.571 221.178 154.615 220.388 153.646C219.899 154.61 216.823 154.199 215.942 154.263C214.021 154.402 212.396 154.787 211.088 152.996C211.177 153.512 211.266 154.029 211.354 154.545C209.621 153.619 207.76 153.916 206.255 154.239C205.509 154.399 203.222 155.503 202.414 155.027C201.859 154.699 202.838 154.139 201.901 153.859C201.41 153.712 200.562 154.528 199.962 154.487C198.301 154.372 198.772 153.256 197.14 154.677C196.587 154.199 196.404 153.387 196.477 152.691C195.292 153.701 195.391 155.385 193.272 155.077C192.482 154.962 192.337 154.157 191.925 154.009C191.048 153.692 190.949 154.261 190.189 154.711C189.902 154.881 189.552 155.154 189.215 155.189C188.521 155.258 188.411 154.939 188.316 154.95C187.854 155.001 187.273 155.235 186.725 155.068C186.234 154.917 186.09 154.05 185.224 154.253C184.396 154.447 184.389 155.01 184.539 155.852C183.722 155.767 183.227 155.312 182.616 154.819C181.999 156.259 180.699 155.067 179.981 156.281C179.045 155.163 178.444 155.471 177.282 154.38C177.34 154.835 177.397 155.29 177.453 155.746C176.547 155.571 176.144 154.932 175.37 155.778C174.62 154.38 172.344 156.371 171.175 155.022C170.654 156.731 167.207 156.322 165.751 156.352C164.461 156.378 163.506 156.273 162.245 156.572C161.131 156.837 159.587 157.111 158.539 156.99C157.855 156.911 157.106 156.785 156.253 156.878C155.024 157.011 153.962 157.648 152.688 157.347C150.77 156.894 149.595 154.376 151.731 153.27C153.192 152.513 155.826 152.793 157.435 152.653C160.101 152.422 163.089 151.937 165.759 152.157C167.841 152.329 169.74 151.833 171.864 151.623C173.464 151.465 176.086 151.181 177.129 152.765C177.53 152.303 177.488 151.338 178.351 151.577ZM149.163 173.268C148.877 171.842 161.066 171.058 162.276 170.965C164.816 170.769 167.363 170.629 169.91 170.565C172.003 170.512 173.956 170.911 176.049 170.59C178.005 170.29 180.364 169.675 182.066 171.059C182.317 169.167 189.654 170.089 191.05 170.094C197.127 170.115 202.942 170.13 208.819 169.754C212.179 169.539 215.746 169.249 219.105 169.417C220.621 169.493 221.841 169.897 223.348 169.546C224.331 169.318 225.39 168.843 226.33 169.515C227.43 170.302 227.901 172.973 227.143 174.088C226.591 174.9 226.102 174.811 225.22 174.67C223.865 174.454 222.857 174.141 221.475 174.692C221.699 174.602 220.549 174.859 220.644 174.851C219.078 174.968 216.93 176.062 215.581 174.801C216.122 174.896 216.907 173.931 216.226 173.852C215.714 173.793 215.389 174.341 214.99 174.525C213.624 175.153 212.924 174.956 212.109 173.639C210.463 175.062 210.286 174.668 209.564 172.915C209.007 173.343 208.888 174.356 208.45 174.688C208.385 174.738 208.655 175.353 208.339 175.327C208.045 175.304 207.949 174.823 207.724 174.785C207.58 174.761 207.505 174.34 207.367 174.314C207.217 174.286 207.064 174.555 206.894 174.547C206.443 174.526 205.15 175.488 205.613 174.138C204.928 175.009 204.633 174.454 204.386 173.661C203.595 174.262 202.805 174.863 202.013 175.464C201.646 174.442 201.012 174.72 200.216 175.077C200.456 174.367 200.306 173.696 199.704 174.189C199.355 174.475 199.121 175.382 198.764 175.767C197.32 174.306 196.795 174.707 194.8 174.897C194.039 174.969 193.092 175.11 192.412 174.65C191.814 174.246 191.475 172.763 190.452 173.961C190.681 173.695 190.323 175.741 190.26 176.066C189.809 175.763 189.426 175.389 189.11 174.946C188.522 176.11 186.977 175.065 185.711 175.303C183.717 175.678 181.661 176.309 179.9 174.826C179.776 175.305 178.334 175.915 178.331 175.933C178.417 175.086 178.952 175.383 177.859 175.223C177.658 175.193 177.43 175.555 177.24 175.594C176.589 175.729 175.828 175.601 175.171 175.582C172.44 175.504 169.94 176.109 167.243 176.328C166.333 176.402 165.255 176.547 164.401 176.204C163.522 175.851 163.546 175.45 162.656 175.678C162.938 175.606 162.101 176.485 162.146 176.452C162.026 176.539 161.527 176.11 161.35 176.142C161.298 176.33 161.247 176.517 161.195 176.704C160.98 176.678 160.766 176.651 160.552 176.625C159.965 176.704 159.436 176.111 158.885 176.091C158.986 176.094 157.398 176.685 157.47 176.721C156.361 176.168 156.68 176.329 155.273 176.665C153.943 176.983 152.62 176.909 151.256 177.107C147.287 177.683 149.651 175.696 149.163 173.268ZM145.658 193.097C144.912 192.039 146.897 191.674 147.532 191.58C148.575 191.427 149.958 191.732 150.653 191.567C151.711 191.315 152.733 190.715 153.924 190.552C155.428 190.346 156.943 190.313 158.453 190.184C158.956 190.141 159.579 189.968 160.068 189.997C160.797 190.041 161.099 190.426 161.688 190.429C162.69 190.434 163.926 189.802 164.953 189.686C166.268 189.537 167.597 189.467 168.918 189.401C171.703 189.263 174.458 189.32 177.242 189.317C178.511 189.316 181.891 187.999 182.524 189.475C183.404 188.356 185.661 188.509 186.919 188.476C189.136 188.419 191.329 188.206 193.544 188.103C195.44 188.015 197.558 188.42 199.421 188.136C200.447 187.98 200.787 187.651 201.95 187.8C202.815 187.909 204.133 187.452 204.875 187.654C204.837 187.644 205.802 188.241 205.5 188.26C205.832 188.239 205.812 188.471 206.178 188.367C206.658 188.232 206.437 187.629 207.432 187.415C208.984 187.08 211.053 187.467 212.664 187.381C214.228 187.298 215.79 187.262 217.355 187.27C218.075 187.273 218.967 187.101 219.668 187.241C220.011 187.31 220.741 187.758 221.032 187.713C221.857 187.584 222.277 187.012 223.393 187.047C224.657 187.087 225.795 187.07 227.052 186.973C228.269 186.88 228.464 186.707 229.067 187.719C229.665 188.723 229.83 190.031 228.73 190.713C229.445 190.666 230.324 191.623 229.482 192.152C228.961 192.48 227.917 191.741 227.294 191.794C226.526 191.86 225.923 192.266 225.088 192.291C224.209 192.318 223.317 192.539 222.451 192.556C221.548 192.573 220.866 192.17 220.01 192.342C219.257 192.493 219.177 193.11 218.27 192.569C217.82 192.299 217.743 191.301 217.129 191.291C216.305 191.279 216.633 192.343 216.159 192.836C216.032 191.314 214.857 193.832 214.39 191.985C213.959 192.598 212.365 193.456 211.592 192.963C210.888 192.514 211.122 191.498 210.828 190.766C210.34 192.082 209.03 193.447 209.149 191.051C208.512 191.834 206.792 191.711 207.223 193.081C206.705 193.071 206.582 192.331 206.146 192.275C205.769 192.227 205.47 192.516 205.413 192.512C205.619 192.529 204.796 192.803 204.783 192.806C205.34 192.692 203.175 192.499 203.544 192.503C203.041 192.499 202.427 192.91 201.839 192.908C201.304 192.907 200.772 192.696 200.243 192.636C198.874 192.48 199.159 192.781 198.299 193.211C197.98 193.37 197.9 193.639 197.448 193.606C197.114 193.581 196.989 193.145 196.952 193.142C196.482 193.095 196.829 192.937 196.1 193.01C196.016 193.154 195.933 193.297 195.85 193.441C195.587 193.777 195.245 193.861 194.826 193.694C193.747 193.925 190.171 194.927 190.521 193.071C189.973 193.339 189.425 193.607 188.877 193.875C188.642 192.378 185.664 194.362 184.999 194.462C184.146 194.59 184.067 194.263 183.26 194.089C183.115 194.058 182.823 194.537 182.483 194.468C181.597 194.29 181.44 194.202 181.288 193.241C180.657 194.421 180.132 193.893 178.988 194.087C178.734 194.13 178.573 194.628 178.209 194.542C177.947 194.481 177.94 194.002 177.759 193.94C177.597 193.884 177.621 193.506 177.381 193.453C177.107 193.391 176.17 194.158 175.902 194.277C175.296 194.544 174.301 194.985 173.709 194.853C172.978 194.69 173.303 194.148 172.27 194.209C170.64 194.304 169.96 195.691 168.945 193.506C168.488 194.381 168.546 194.619 167.811 194.908C167.267 195.121 165.891 194.898 165.176 194.872C162.121 194.759 159.118 195.799 156.089 195.527C154.757 195.407 153.634 195.141 152.29 195.358C150.878 195.588 149.497 195.924 148.065 196.06C147.336 196.129 145.815 196.338 145.457 195.407C145.143 194.588 146.316 194.029 145.658 193.097ZM151.65 226.691C147.687 229.34 144.406 232.958 140.767 236.022C137.12 239.093 134.225 242.507 130.945 245.909C127.912 249.053 125.125 252.027 121.459 254.403C119.138 255.907 117.068 257.758 114.685 259.176C112.9 260.238 110.196 261.634 111.066 258.387C111.959 255.058 113.607 251.694 115.038 248.585C117.073 244.167 119.123 239.789 121.324 235.454C122.151 233.825 122.614 232.204 123.926 230.907C125.354 229.494 126.353 227.651 127.917 226.317C134.493 220.705 144.403 225.04 151.65 226.691ZM164.079 228.593C162.282 229.535 160.27 229.768 158.365 230.391C156.742 230.921 155.233 231.865 153.487 231.935C155.076 230.742 156.441 229.122 158.233 228.217C160.248 227.198 162.078 227.939 164.079 228.593ZM242.97 236.441C236.359 234.211 230.203 230.926 223.764 228.282C222.653 227.825 213.959 224.964 214.136 223.602C220.228 222.486 226.502 220.572 232.608 222.659C238.164 224.558 242.682 229.112 246.983 232.924C248.105 233.919 255.044 238.448 254.423 239.89C253.993 240.89 250.65 240.617 249.86 240.412C248.84 240.147 248.253 239.528 247.453 238.849C246.115 237.712 244.635 237.003 242.97 236.441ZM230.765 199.19C231.77 198.267 232.371 196.865 233.33 196.013C234.562 194.917 236.551 195.451 237.898 196.02C241.941 197.728 245.396 200.598 249.414 202.379C253.867 204.354 257.721 206.992 261.737 209.711C265.408 212.197 269.377 214.255 273.124 216.626C276.942 219.044 281.216 220.615 285.087 222.947C289.026 225.32 292.95 227.703 296.735 230.318C303.485 234.981 310.513 239.77 315.507 246.4C318.073 249.808 320.476 253.673 322.359 257.5C324.072 260.979 325.929 265.808 323.71 269.427C321.579 272.902 317.947 275.639 314.874 278.233C313.709 279.214 312.602 280.407 311.093 280.833C309.258 281.35 307.116 281.208 305.229 281.361C295.136 282.178 285.734 281.406 275.789 279.602C266.199 277.863 256.569 276.889 246.905 275.68C241.454 274.998 236.003 274.203 230.626 273.068C228.327 272.582 225.988 272.022 223.739 271.36C221.774 270.783 220.122 269.511 218.102 269.007C209.53 266.867 199.723 266.049 191.236 262.451C198.746 259.331 206.727 257.447 214.424 254.855C222.525 252.126 230.437 249.837 238.976 249.062C243.369 248.663 247.301 247.542 251.528 246.368C255.556 245.249 259.761 244.906 263.898 244.405C265.738 244.182 270.988 244.516 271.598 242.112C272.506 238.533 267.347 238.12 265.148 238.441C262.028 238.896 259.455 239.674 257.068 237.115C254.63 234.503 252.261 231.828 249.778 229.249C245.176 224.467 240.432 218.935 233.927 216.789C225.99 214.172 216.786 216.656 208.867 218.145C200.502 219.717 192.151 221.222 183.943 223.508C180.544 224.454 176.161 226.539 172.633 226.205C169.156 225.874 165.219 225.305 161.859 224.303C160.339 223.85 159.089 223.009 157.729 222.226C155.96 221.207 154.022 220.554 152.145 219.762C148.349 218.161 144.649 216.686 140.554 216.056C137.105 215.526 133.443 215.212 130.101 216.42C126.822 217.606 123.917 220.019 121.629 222.598C119.144 225.4 117.09 228.539 115.054 231.669C114.076 233.171 112.883 234.482 111.87 235.95C111.019 237.184 110.523 238.554 109.624 239.753C107.61 242.435 106.243 245.865 105.023 248.985C103.667 252.45 102.161 256.571 102.485 260.341C102.607 261.766 102.735 263.653 103.287 264.974C103.988 266.654 104.988 266.611 106.429 267.245C108.906 268.334 109.601 271.344 112.801 270.757C115.803 270.207 118.407 267.734 120.597 265.763C123.452 263.195 126.184 260.487 128.916 257.789C131.719 255.02 134.481 251.948 136.711 248.691C137.589 247.408 138.274 245.96 139.311 244.792C140.632 243.304 142.115 243.126 143.91 242.533C159.597 237.353 175.361 232.355 191.539 228.935C195.415 228.115 199.322 227.058 203.129 225.967C207.167 224.81 209.259 226.033 212.591 228.235C219.554 232.836 227.784 236.077 235.537 239.079C237.978 240.024 241.865 240.084 243.773 241.949C232.461 243.672 221.681 246.988 210.771 250.291C205.391 251.918 199.95 253.33 194.551 254.887C189.149 256.445 183.953 258.463 178.625 260.218C173.323 261.966 167.72 262.679 162.367 264.291C156.902 265.936 151.46 267.068 145.85 268.068C140.186 269.078 134.562 270.244 128.878 271.148C126.276 271.562 123.674 271.992 121.101 272.561C118.583 273.119 116.15 274.454 113.62 274.763C102.318 276.145 91.2385 279.224 79.981 280.965C71.5757 282.265 56.9524 284.078 51.5018 275.649C46.0209 267.172 52.7452 257.284 58.7451 251.223C62.4738 247.457 66.6636 244.141 71.0595 241.192C75.7643 238.036 80.2909 234.628 84.9966 231.476C95.6456 224.344 107.193 218.527 118.634 212.795C124.125 210.045 129.431 207.094 134.773 204.075C137.424 202.577 138.892 204.995 140.988 206.638C142.636 207.931 145.663 211.117 147.969 209.644C148.058 210.174 148.147 210.705 148.236 211.236C148.911 210.928 149.587 210.621 150.262 210.313C150.716 211.502 150.663 212.241 151.931 212.865C152.709 213.249 154.371 213.711 155.113 213.035C155.264 213.505 155.415 213.974 155.567 214.444C156.216 214.394 156.341 212.539 156.464 212.105C157.575 213.728 159.113 215.085 161.068 215.543C161.077 215.437 160.75 214.104 160.764 214.096C161.382 213.717 162.162 215.337 162.49 215.684C163.577 216.834 164.225 216.656 165.426 215.728C165.513 215.823 165.92 216.882 165.979 216.863C166.239 216.781 166.732 215.842 166.786 215.756C166.711 216.992 169.097 217.24 169.94 216.975C169.751 216.613 169.562 216.251 169.373 215.889C172.309 215.498 173.461 218.615 176.278 218.457C178.361 218.339 176.691 217.884 177.87 216.992C178.899 216.213 179.083 217.918 179.184 217.863C179.381 217.658 179.533 217.422 179.641 217.154C180.022 218.614 183.056 219.923 182.742 217.524C183.936 218.001 184.784 218.793 186.105 218.96C187.711 219.163 189.426 218.823 191.027 218.69C194.479 218.403 197.733 217.699 200.844 216.118C202.689 215.181 204.652 214.331 206.386 213.201C207.837 212.255 210.59 209.382 212.522 210.619C212.027 209.16 214.357 210.512 214.431 208.633C214.805 208.915 215.179 209.196 215.554 209.479C215.778 208.987 215.715 208.212 216.016 207.783C216.428 207.195 216.63 207.541 216.982 207.21C217.375 206.84 217.719 205.848 218.191 205.565C218.677 205.275 219.25 205.621 219.773 205.367C220.57 204.98 223.998 201.203 223.417 204.439C224.892 203.939 223.755 203.481 223.939 202.5C224.309 200.532 225.209 201.948 226.105 202.119C227.573 202.401 227.544 201.188 228.362 200.306C229.11 199.501 230.515 199.141 230.031 197.742C230.584 198.04 230.701 198.624 230.765 199.19ZM142.277 157.174C141.12 158.461 140.254 157.911 138.969 157.722C138.831 157.261 138.596 157.198 138.264 157.53C137.882 157.749 137.473 157.894 137.034 157.962C135.98 158.222 134.885 158.112 133.853 158.505C133.883 158.16 134.246 157.546 134.013 157.195C132.929 157.945 132.256 158.422 130.924 158.436C129.845 158.448 127.951 157.624 127.055 158.609C127.027 158.225 126.999 157.842 126.972 157.459C126.533 157.677 126.151 157.97 125.827 158.336C125.765 157.768 125.731 157.338 125.355 156.879C124.642 158.345 123.861 158.38 122.476 157.82C122.67 157.898 121.09 156.972 121.15 157.229C120.65 155.124 128.538 155.298 129.367 155.215C131.435 155.006 133.503 154.885 135.574 154.694C137.538 154.514 139.005 154.207 140.364 155.845C139.758 153.479 145.49 153.597 142.277 157.174ZM51.8334 120.48C52.0507 124.057 52.8473 127.859 51.4558 131.302C50.3372 134.07 48.1056 137.195 45.7014 139.001C40.7789 142.699 36.6069 138.174 35.9216 133.201C35.2075 128.014 36.623 121.677 41.0914 118.479C43.7615 116.568 46.3468 116.701 49.4206 117.329C50.1425 117.477 51.3145 117.42 51.7274 118.137C51.8243 118.304 51.7374 120.477 51.8334 120.48ZM117.211 168.139C116.361 168.569 115.471 168.82 114.721 169.403C114.461 169.606 114.372 170.068 114.096 170.238C113.593 170.549 112.874 170.343 112.35 170.6C111.483 171.023 110.861 171.63 109.83 172.02C108.299 172.6 106.957 173.395 105.509 174.149C103.098 175.406 100.51 176.485 97.9898 177.508C96.7173 178.024 93.1985 179.03 93.3202 180.892C93.0355 180.969 92.7448 180.347 92.1503 180.397C91.3346 180.464 90.2568 181.407 89.4098 181.639C87.8253 182.073 86.5989 182.111 86.5989 184.13C86.0948 183.788 85.9666 182.949 85.2956 182.839C84.5403 182.714 84.2226 183.528 83.6185 183.781C82.9071 184.08 82.0223 183.793 81.3178 184.111C81.0097 184.437 80.6673 184.721 80.2905 184.964C79.9072 185.007 79.5256 184.996 79.1462 184.928C77.6504 185.245 76.274 185.808 74.7747 186.099C73.3136 186.385 72.3128 186.488 72.9273 188.215C71.3641 188.521 70.9825 186.863 69.219 187.47C67.0574 188.212 65.037 188.748 62.7806 189.201C61.6298 189.432 60.4273 189.948 59.2683 190.069C58.4413 190.156 57.6695 189.86 56.8551 189.952C55.8738 190.062 55.085 190.516 54.0694 190.533C53.1059 190.55 52.0946 190.377 51.1485 190.207C51.2824 190.588 51.4497 190.954 51.6505 191.303C50.9964 191.166 50.6944 190.38 50.1399 190.264C49.5579 190.142 49.0364 190.742 48.5519 190.609C48.3455 190.552 48.4828 189.916 48.1138 189.795C47.777 189.685 47.6353 189.815 47.3016 189.762C47.1903 189.745 45.7949 189.67 45.5724 189.787C45.1839 189.993 45.5772 190.379 45.4998 190.436C44.1874 191.407 44.1713 190.883 43.5863 189.869C42.7271 188.38 41.6911 189.32 40.1296 189.059C38.3891 188.769 37.018 189.537 35.3053 189.427C33.4579 189.309 31.2867 187.928 29.6531 187.121C26.126 185.378 22.6863 183.73 19.7242 181.09C13.9333 175.931 9.22241 169.587 6.44481 162.324C3.46039 154.521 2.89486 146.383 3.13441 138.104C3.27851 133.126 3.6772 128.15 4.46232 123.23C5.00282 119.845 5.11603 113.83 8.93385 112.289C9.59007 120.214 7.51906 128.289 8.8252 136.163C9.2185 138.534 10.1776 141.694 11.9929 143.451C14.6804 146.05 15.3092 142.292 15.5521 140.216C16.0045 136.36 16.845 132.526 17.4404 128.689C18.0349 124.853 18.4552 120.974 19.2817 117.179C19.5833 115.795 22.0144 105.66 23.7988 106.14C23.4377 113.513 22.479 120.759 22.4412 128.158C22.4264 131.126 22.1604 134.261 22.5889 137.21C22.8097 138.727 24.1921 143.179 26.5697 142.808C28.77 142.464 26.3511 139.328 26.1456 138.119C25.6015 134.917 26.2951 130.935 26.8022 127.757C27.7627 121.744 29.9047 115.585 33.4057 110.56C36.5417 106.06 41.3699 101.777 47.1869 102.57C49.6718 102.909 51.6109 103.526 52.8595 105.795C53.8395 107.575 57.699 109.597 55.4622 111.826C53.4262 113.855 50.1329 112.231 47.8696 111.747C45.0982 111.155 42.1283 111.868 39.8106 113.491C35.8342 116.275 33.5683 121.253 32.8286 125.921C31.8317 132.216 34.4965 148.692 44.3116 145C50.8321 142.546 55.7434 133.722 55.1958 126.965C54.9763 124.261 53.9186 119.127 57.6621 118.397C62.4582 117.461 63.1357 122.745 62.6498 126.18C61.944 131.174 59.3026 135.819 56.281 139.768C53.6474 143.21 50.5844 145.363 47.4154 148.206C46.4772 149.047 44.0839 150.939 44.4859 152.505C44.9266 154.22 48.6875 154.708 50.1933 154.99C57.6434 156.384 66.0448 155.101 73.4823 154.128C88.7683 152.127 103.853 147.2 116.387 138.14C116.894 143.746 117.532 149.332 117.767 154.958C117.881 157.689 117.91 160.46 118.223 163.176C118.415 164.846 119.11 167.18 117.211 168.139ZM74.8256 187.672C74.2254 187.985 74.8742 186.088 74.7074 186.716C75.6039 187.037 75.6435 187.356 74.8256 187.672ZM138.236 119.833C139.189 118.784 141.792 116.287 142.618 118.656C142.925 117.646 142.965 116.15 144.151 117.514C144.624 115.839 149.835 115.996 151.126 115.922C155.258 115.686 159.408 115.559 163.526 115.149C171.989 114.306 180.599 114.741 189.092 114.713C190.931 114.707 192.766 114.608 194.591 114.874C196.353 115.131 198.205 115.853 200.001 115.59C201.597 115.355 202.644 114.915 204.287 115.103C206.254 115.329 208.163 115.489 210.147 115.481C218.922 115.449 227.693 115.805 236.47 115.819C238.18 115.821 240.23 115.487 241.835 116.213C242.429 116.483 243.079 117.378 243.533 117.477C244.053 117.589 243.744 116.778 244.441 117.144C245.374 117.635 244.652 119.143 244.035 119.382C244.404 119.239 243.369 119.098 243.472 119.092C242.981 119.119 242.562 119.496 242.034 119.472C241.23 119.437 240.557 118.947 239.91 118.516C239.899 118.692 240.255 119.866 239.848 119.925C239.499 119.976 239.171 118.819 239.136 118.549C237.172 120.28 235.092 119.316 232.656 119.535C230.927 119.691 227.324 120.843 226.118 119.039C226.068 119.423 225.914 119.759 225.657 120.047C225.312 120.571 225.015 120.527 224.763 119.912C224.678 119.916 223.838 120.098 223.822 120.097C223.231 120.05 222.465 119.838 221.864 119.787C220.934 119.707 221.105 120.384 220.364 120.395C219.959 120.4 218.928 119.817 218.222 119.78C217 119.716 215.752 120.234 214.546 120.078C213.716 119.97 212.966 119.294 212.152 119.268C211.137 119.234 210.808 120.008 210.004 118.922C209.839 118.877 209.737 119.516 209.672 119.527C209.688 119.524 208.907 119.64 208.814 119.676C208.654 119.737 208.03 120.023 207.84 120.026C207.429 120.034 207.207 119.74 206.772 119.733C206.052 119.721 203.754 120.354 203.818 119.023C201.25 119.975 199.059 119.604 196.422 119.829C195.213 119.932 194.453 119.77 193.302 119.549C191.861 119.271 190.904 119.62 189.467 119.691C188.086 119.758 187.651 119.174 186.485 118.647C186.025 118.439 185.721 118.165 185.157 118.28C184.835 118.346 185.064 118.887 184.969 118.924C184.474 119.115 184.128 118.913 183.449 118.959C182.194 119.045 181.695 120.092 180.406 119.109C180.834 119.057 181.263 119.004 181.692 118.953C180.459 118.43 178.832 118.164 179.13 120.066C178.079 119.918 178.989 119.203 178.472 118.946C177.955 118.691 177.377 119.119 176.726 119.33C175.006 119.888 173.573 119.611 171.781 119.511C169.744 119.397 164.98 121.058 163.521 118.902C163.477 119.357 162.989 120.622 162.34 120.563C162.128 120.543 162.718 119.199 162.785 119.057C162.45 119.769 160.924 119.904 160.171 120.273C160.256 119.891 160.34 119.509 160.424 119.126C159.726 119.87 159.387 119.416 158.565 119.664C158.205 119.773 157.685 120.514 157.378 120.558C157.02 120.144 156.57 119.965 156.029 120.023C155.668 119.933 155.308 119.915 154.947 119.97C153.505 120.075 152.19 120.876 150.755 120.33C149.513 119.857 149.033 118.641 148.292 120.576C148.097 120.232 147.902 119.888 147.708 119.544C147.467 119.918 147.227 120.291 146.986 120.664C146.047 120.049 145.989 119.693 144.908 119.919C144.654 120.02 144.393 120.005 144.127 119.876C144.063 120.066 144 120.255 143.936 120.444C143.911 120.92 143.769 121.078 143.512 120.916C143.295 120.838 143.1 120.72 142.926 120.562C142.21 120.617 141.297 120.805 140.529 120.701C140.232 120.661 138.374 119.681 138.236 119.833ZM160.13 107.026C160.214 107.156 160.298 107.285 160.383 107.414C159.221 108.027 158.948 107.675 158.828 106.444C159.395 106.455 159.492 107.453 160.13 107.026ZM160.849 106.304C161.409 106.551 162.05 107.035 162.577 106.386C162.931 107.417 160.297 108.823 160.849 106.304ZM164.462 106.759C165.636 107.552 162.819 106.915 162.824 106.916C163.33 106.449 163.876 106.397 164.462 106.759ZM174.561 102.336C174.964 104.367 176.075 104.309 177.868 103.365C180.482 101.988 180.924 99.7329 181.106 97.0403C181.281 94.4584 181.597 93.4588 184.26 93.9979C186.12 94.3741 187.692 94.0579 189.567 94.0062C191.567 93.951 192.272 94.2564 192.432 96.3135C192.594 98.3733 192.96 99.9375 194.456 101.505C195.976 103.099 198.004 104.051 199.98 104.942C200.996 105.4 201.95 105.893 203.074 105.993C203.51 106.031 205.777 105.745 205.824 106.462C205.86 107.001 202.72 108.521 202.387 108.702C200.931 109.494 199.479 110.204 197.888 110.683C194.229 111.787 190.349 111.852 186.559 111.785C180.448 111.678 172.002 109.094 168.348 103.675C170.419 103.229 172.491 102.782 174.561 102.336ZM174.013 84.748C173.046 83.937 172.42 82.7116 171.617 81.7512C171.212 81.2669 170.915 81.1127 170.53 80.8703C170.124 80.6149 169.895 80.9763 169.556 80.376C168.681 78.8253 171.382 76.643 168.518 76.0462C167.549 75.8438 165.217 76.6113 164.934 75.2235C164.534 73.2615 168.281 73.1333 169.162 72.1373C170.915 70.1574 169.725 66.801 170.793 64.5171C171.804 62.3535 174.412 61.9691 176.471 61.3188C179.341 60.4136 182.244 59.8885 185.157 59.1639C187.194 58.6574 190.578 56.6229 192.467 58.4207C189.552 59.0675 191.246 60.0831 193.189 60.656C195.39 61.3058 197.723 61.559 200.003 61.7402C202.35 61.9261 204.742 61.9617 207.062 61.4939C209.207 61.0613 211.602 59.1978 213.851 59.6752C212.604 61.844 208.886 63.0285 206.627 63.5967C205.476 63.886 204.739 63.7956 204.894 65.2299C205.044 66.6199 206.253 68.0138 206.526 69.462C206.887 71.3784 206.572 73.1398 205.889 74.942C205.217 76.7156 205.061 76.9471 205.648 78.6416C206.562 81.28 204.597 84.1963 202.781 86.1123C195.435 93.8598 181.379 90.9252 174.013 84.748ZM192.677 38.4448C192.707 38.5239 192.682 38.4939 192.677 38.4448V38.4448ZM194.965 57.9968C194.661 58.2239 192.907 58.7009 192.98 58.0159C193.078 57.0976 194.659 57.4295 194.965 57.9968ZM198.963 39.4517C198.551 39.1451 197.398 39.271 198.242 38.1086C198.516 38.6199 198.74 39.0356 198.963 39.4517ZM171.299 32.1039C171.823 30.7417 172.404 29.4742 172.641 28.0238C172.787 27.1303 172.496 26.11 173.746 25.9697C172.153 25.2756 172.137 22.5355 172.043 21.1152C171.914 19.1591 171.296 16.5401 172.156 14.7195C173.039 12.8493 174.23 12.8803 174.589 15.1076C174.73 15.9797 174.192 16.2617 174.09 16.869C173.89 18.0705 174.288 17.8071 175.064 16.8918C175.384 17.8221 175.507 19.2201 176.81 19.161C176.723 18.9094 176.224 18.3544 176.391 18.0418C176.647 17.5619 177.898 18.2952 178.056 18.4062C179.199 19.2051 179.447 19.9343 178.632 20.9418C179.76 21.0635 178.813 22.0508 179.542 22.3079C180.653 22.7006 179.908 20.8406 179.787 20.5135C180.464 20.7772 180.69 21.0787 181.119 21.6125C181.37 21.9809 181.599 22.3635 181.805 22.7593C182.036 23.482 182.51 23.6627 183.227 23.3027C184.667 23.754 186.654 23.6832 187.944 24.4724C188.533 24.8325 188.745 25.6209 189.238 25.9202C189.791 26.2572 190.534 26.1043 191.129 26.3159C190.911 26.8102 191.087 27.0778 191.656 27.1195C192.099 27.1599 192.527 27.2593 192.941 27.4179C193.251 27.1846 193.588 27 193.952 26.8662C194.196 27.2967 194.542 27.4031 194.989 27.1864C196.316 27.4348 196.954 27.9365 197.797 28.6867C198.554 29.36 197.938 29.4147 198.768 29.3547C199.101 29.3309 199.685 28.7657 200.447 28.8761C200.886 28.9612 201.309 29.0967 201.717 29.2813C202.157 29.6579 202.625 29.7053 203.12 29.4238C203.923 29.816 204.002 30.5119 204.982 30.607C206.066 30.7126 205.717 29.3621 206.461 31.2664C207.463 29.2475 207.831 32.464 208.865 32.7237C209.937 32.993 210.053 32.1243 210.97 33.0734C211.245 33.3579 211.23 33.8279 211.538 34.1294C212.044 34.6228 212.728 34.5242 213.168 35.1975C212.923 34.8217 213.226 36.5293 213.221 36.4728C213.289 37.226 212.619 38.07 213.992 38.0057C213.977 38.0847 213.317 39.0451 213.189 38.9365C213.157 38.8271 213.13 38.7159 213.109 38.6034C212.962 38.6668 212.897 39.5816 212.924 39.7432C213.04 39.7614 213.088 39.675 213.067 39.4839C212.841 40.1893 213.181 40.6376 212.748 41.3074C212.471 41.7352 211.712 42.0571 211.309 42.3212C210.336 42.9588 209.383 43.5987 208.434 44.2776C206.22 45.8604 203.742 47.7695 200.955 48.0996C202.354 46.7257 210.409 41.5263 206.369 40.0338C205.62 39.7571 204.256 39.4952 203.472 39.4369C202.497 39.3648 201.49 39.9226 200.415 39.5742C199.117 39.155 199.606 37.9362 198.814 37.4988C197.131 36.5714 197.528 38.7528 196.999 39.324C196.442 38.7406 196.561 38.4566 195.683 38.404C194.791 38.3501 194.579 39.1742 193.538 38.6607C192.105 37.9536 192.863 36.5445 190.83 36.5115C190.864 36.2022 191.159 35.3378 190.771 35.0967C190.247 35.7748 190.652 36.5332 190.166 37.186C189.924 37.5135 189.396 37.7746 189.011 37.8806C188.109 38.1282 187.981 38.6021 188.128 37.2451C187.459 38.4483 185.41 37.9536 184.191 37.8324C182.21 37.6356 180.104 37.2607 178.204 36.6257C176.447 36.038 175.508 35.0285 174.059 34.1098C173.511 33.7623 173.25 33.8952 172.465 33.6794C171.689 33.4665 170.933 33.0539 171.299 32.1039ZM175.48 10.7985C175.779 10.6183 175.994 13.3065 175.631 13.8088C174.967 12.7592 173.79 11.2198 175.48 10.7985ZM176.435 9.72624C177.398 8.85598 176.729 11.1038 176.553 11.4809C176.196 11.2525 175.84 11.0241 175.484 10.7958C175.938 10.5169 176.052 10.0733 176.435 9.72624ZM212.732 6.10367C221.62 7.96799 230.427 11.4527 237.556 17.1875C244.049 22.4109 248.632 29.8221 251.202 37.7055C253.869 45.8882 252.973 54.9666 246.627 61.2294C243.284 64.528 238.87 66.5183 234.664 68.4603C232.648 69.3908 230.572 70.1657 228.549 71.0748C227.095 71.7277 225.321 72.7719 223.663 72.5912C224.509 71.7012 225.736 71.6829 226.76 71.1391C227.998 70.481 229.008 69.2188 230.074 68.317C231.133 67.4218 233.482 64.6027 235.109 65.2851C234.883 63.783 236.595 63.0859 237.366 62.0955C238.182 61.0478 238.241 59.8224 239.744 59.4797C238.129 58.2166 238.624 55.8349 238.975 54.1157C239.424 51.9169 239.632 49.8983 239.81 47.6609C240.129 43.6273 240.386 38.4887 238.156 34.9429C237.433 33.7914 236.511 32.7333 235.866 31.537C235.088 30.0958 235.259 28.8274 235.259 27.2472C233.837 28.2028 233.537 26.2546 232.936 25.3051C232.485 24.5927 231.893 24.1948 231.747 23.2983C231.641 22.6463 232.35 22.536 231.961 21.8523C231.485 22.2115 231.296 22.7684 231.054 23.2853C230.615 23.1098 231.133 22.4982 230.881 22.2997C230.874 22.294 230.026 21.9261 230.068 21.9791C229.523 21.288 229.347 20.1413 229.08 19.3188C228.081 19.8247 228.268 19.7651 227.153 18.9198C226.957 18.7711 225.976 18.0878 225.883 17.8644C225.452 16.8199 226.208 17.4386 225.997 16.7903C225.39 14.9283 221.983 15.2805 221.713 12.4904C220.052 13.5445 219.419 12.0509 218.437 10.9887C217.431 9.90051 215.743 9.48195 215.833 7.75597C215.31 7.93476 214.787 8.11307 214.265 8.29095C214.537 6.69828 212.169 6.79971 211.312 5.99177C211.788 5.99768 212.261 6.03499 212.732 6.10367ZM214.086 104.749C214.909 104.013 214.659 104.993 215.189 104.881C215.643 104.785 215.732 104.442 216.167 104.337C217.958 103.905 220.635 104.448 222.518 104.355C224.699 104.247 228.439 104.7 229.478 107.251C230.104 108.787 229.149 108.264 228.096 108.15C227.28 108.062 226.554 108.227 225.746 108.218C225.347 108.28 224.949 108.274 224.552 108.2C224.359 108.072 224.244 107.893 224.209 107.662C223.085 107.492 221.892 108.157 220.647 108.19C218.986 108.234 217.509 107.916 216.247 106.794C215.745 107.542 215.404 107.913 214.501 107.996C214.478 107.999 213.596 107.644 213.46 107.609C213.279 107.562 212.822 107.94 212.474 107.832C213.092 106.849 213.182 105.557 214.086 104.749ZM327.54 113.626C327.834 112.607 328.079 111.574 328.346 110.548C332.446 115.213 336.035 121.459 337.65 127.443C338.698 131.331 340.331 138.376 335.33 140.382C331.257 142.016 328.986 136.16 327.955 133.276C325.68 126.909 325.68 120.105 327.54 113.626ZM144.086 40.519C144.139 40.5081 141.432 42.0818 142.324 40.8078C142.682 40.2953 144.041 39.9352 144.643 39.9352L144.086 40.519ZM141.482 41.1857C141.169 41.449 140.852 41.7091 140.533 41.9659C140.227 41.482 139.92 40.9976 139.613 40.5137C140.218 40.2592 142.783 40.0681 141.482 41.1857ZM139.574 90.112C139.008 89.7285 138.559 89.9322 138.388 90.5759C138.388 89.9357 138.722 88.4475 139.235 88.2742C139.566 88.1617 138.133 86.4672 138.536 86.0237C139.56 86.6101 138.947 87.1718 139.247 87.9289C139.383 88.2703 139.789 88.5935 139.879 88.8558C140.03 89.3015 140.641 90.8331 139.574 90.112ZM136.799 86.2987C136.219 86.4472 137.235 87.4042 137.234 87.8272C137.233 88.1474 136.849 88.3928 136.69 88.8306C136.346 89.7789 136.938 90.4196 135.964 91.1432C135.964 89.0652 134.569 83.5587 137.25 82.5461C135.942 81.5167 137.016 80.3282 138.042 81.5606C139.027 82.7451 138.399 85.8895 136.799 86.2987ZM135.402 78.0982C134.875 76.2304 133.289 75.5771 131.476 75.6879C131.545 74.7314 132.27 73.3527 132.793 75.0763C133.009 74.5667 133.158 73.9021 133.649 73.5646C134.476 76.1557 138.599 77.5874 136.032 80.3951C135.822 79.6298 135.618 78.8627 135.402 78.0982ZM130.611 75.8268C121.065 76.5188 107.662 78.4987 100.023 71.1847C95.0416 66.4158 95.3075 58.9893 99.3331 53.6908C101.63 50.6672 104.766 48.5383 107.916 46.5103C109.131 45.7271 110.16 45.2106 111.494 44.7606C111.71 44.7371 111.914 44.7854 112.104 44.9052C112.179 44.5829 112.36 44.3449 112.649 44.189C113.165 43.9136 113.899 43.815 114.195 43.2429C113.879 44.3175 113.716 45.4239 113.6 46.5354C113.342 46.2362 113.086 45.9369 112.829 45.6376C112.614 47.6626 110.503 46.4368 109.243 46.6896C110.073 47.8381 110.667 48.2551 110.738 49.7728C110.12 48.6317 108.827 47.8816 107.625 47.5141C108.278 49.444 108.739 50.5894 108.082 52.7057C107.288 52.2526 107.235 51.1645 106.272 50.9039C106.017 52.1658 105.973 53.5662 105.647 54.7907C103.181 53.6665 103.422 56.6941 104.412 58.1922C104.938 58.9893 105.197 59.9119 105.667 60.6768C106.819 62.5538 105.944 59.7473 107.225 59.8802C106.937 61.8596 106.837 62.0568 108.286 63.5063C109.701 64.9198 110.434 66.881 111.947 68.2088C112.385 67.6494 111.696 67.0638 111.636 66.5283C113.043 66.7641 113.703 68.175 115.056 66.9253C115.646 68.0751 116.285 69.3412 117.698 69.5771C116.764 67.8018 119.493 69.0059 120.192 69.2579C120.723 69.449 121.674 69.601 121.878 69.6744C123.031 70.0905 122.241 69.3438 122.941 70.7082C123.968 70.3981 124.356 69.5463 125.585 70.266C126.584 70.8516 126.586 71.8541 126.814 72.8814C127.053 72.2094 127.293 71.5379 127.556 70.875C127.824 70.988 128.95 72.2255 128.827 72.2311C131.46 72.1021 131.367 73.7362 130.611 75.8268ZM117.208 42.3286C117.736 41.9576 118.382 42.4515 118.975 42.3186C119.798 42.1353 120.264 41.4316 121.183 41.356C120.927 42.1722 120.448 42.0957 120.042 42.7364C119.904 42.9549 119.976 43.4788 119.853 43.6047C118.824 44.6581 118.468 43.7985 117.418 43.001C117.509 43.9627 117.694 44.2663 116.788 44.5243C115.967 44.7584 114.613 43.8971 114.199 43.2364C114.548 42.5388 116.575 42.7725 117.208 42.3286ZM123.758 40.8252C124.649 40.9103 123.576 43.5391 122.298 40.9894C122.779 40.8847 123.266 40.83 123.758 40.8252ZM128.342 40.3174C129.747 40.0307 134.437 38.695 134.959 40.8821C135.052 40.8278 135.401 39.5929 135.563 39.7436C136.212 40.3474 136.285 41.1475 136.235 41.9858C135.451 40.3517 135.73 41.7873 135.198 41.6753C135.059 41.6457 134.846 41.905 134.495 41.7982C134.034 41.6575 133.704 40.6771 133.412 40.3452C132.928 41.0363 132.327 41.9268 131.357 41.8668C130.67 41.8242 129.563 40.0568 130.452 41.9919C129.93 41.8195 129.326 41.429 128.744 41.5072C128.092 41.5953 127.754 42.2378 127.143 42.3416C125.789 42.5709 125.585 41.2691 124.706 40.562C125.918 40.4916 127.145 40.5611 128.342 40.3174ZM136.847 40.2961C136.946 39.8479 138.176 39.6667 138.49 39.8092C139.254 40.1563 138.971 40.6145 138.831 41.3768C138.264 41.1084 137.696 40.8404 137.129 40.572C137.975 41.935 136.441 42.1327 136.847 40.2961ZM374.973 120.132C374.872 116.866 374.777 113.543 373.949 110.363C373.369 108.138 371.945 104.147 369.251 103.761C365.188 103.178 362.938 111.204 361.8 113.959C361.572 110.715 361.771 107.263 360.545 104.184C359.564 101.717 357.085 99.3806 354.949 102.151C353.049 104.617 352.684 108.257 352.184 111.223C351.536 115.068 351.147 118.941 350.673 122.808C348.818 119.224 348.493 115.121 347.027 111.396C345.643 107.88 343.465 104.523 341.367 101.397C339.654 98.8425 337.569 96.4412 334.886 94.8801C332.549 93.5214 328.464 92.0515 326.238 94.3081C324.38 96.1911 324.671 98.7108 324.767 101.087C324.811 102.145 324.977 102.871 324.045 103.404C323.588 103.666 322.873 103.531 322.37 103.67C321.56 103.897 320.939 104.28 320.254 104.789C315.449 108.358 313.234 114.79 312.549 120.525C311.681 127.791 314.515 134.02 316.954 140.669C317.342 141.728 318.577 143.976 318.406 145.159C318.219 146.454 316.592 146.488 315.494 146.515C312.177 146.597 308.71 146.35 305.41 146.041C297.553 145.306 289.702 141.526 282.667 138.15C281.383 137.534 279.567 137.181 278.519 136.211C277.534 135.3 277.275 133.838 276.425 132.792C274.338 130.226 273.009 128.037 269.936 126.486C266.808 124.907 263.615 123.448 260.562 121.719C256.787 119.58 253.299 116.871 249.682 114.475C242.959 110.025 236.282 105.147 229.154 101.363C225.842 99.6039 222.141 99.3194 218.702 97.8794C215.353 96.4773 211.243 96.4756 207.748 97.3608C206.046 97.7926 204.888 98.8151 203.322 99.4827C201.488 100.265 199.991 99.4015 198.377 98.4676C195.91 97.0411 193.465 94.7164 196.978 93.1774C198.169 92.6548 199.662 92.4572 200.703 91.6362C201.812 90.7614 202.703 89.1473 203.606 88.0514C205.611 85.615 206.809 82.8107 209.745 81.2956C212.991 79.6202 216.84 79.1641 220.301 78.0691C224.051 76.8832 227.724 75.4728 231.404 74.0881C238.036 71.5935 244.929 68.8999 249.695 63.4077C253.804 58.67 255.596 52.5541 255.43 46.3426C255.091 33.6446 248.285 20.7572 238.521 12.8179C226.548 3.08253 211.316 -0.163835 196.192 0.00630825C189.093 0.0864064 180.623 1.01488 174.7 5.32532C169.585 9.0484 168.734 15.5602 169.495 21.4383C169.803 23.8239 170.859 26.9722 169.176 29.0741C168.233 30.2504 166.542 30.5415 165.273 31.2747C163.679 32.196 162.273 33.079 160.467 33.566C152.795 35.6371 144.714 34.916 136.869 34.8013C123.802 34.6102 110.408 38.1464 100.661 47.3495C92.7887 54.7807 90.428 68.7939 100.029 76.0384C107.786 81.8911 119.952 81.2474 129.099 80.2266C131.935 79.9095 133.885 79.4491 133.892 82.9175C133.899 86.7061 133.271 90.6658 134.238 94.3849C135.761 100.243 141.393 100.382 146.371 99.1209C148.998 98.4554 151.538 97.4546 154.033 96.4065C157.692 94.8693 161.046 92.6088 164.659 91.0742C167.109 90.0343 168.944 93.3976 171.116 91.0659C171.518 90.635 171.592 89.993 172.198 89.7723C173.147 89.427 174.739 90.638 175.571 91.0212C176.818 91.5945 178.074 92.0163 178.572 93.3976C179.038 94.6894 178.834 96.744 178.387 98.0185C177.418 100.789 174.807 100.242 172.423 100.056C168.266 99.7329 164.136 99.0471 159.98 98.7591C156.251 98.501 152.76 99.6143 149.544 101.453C142.788 105.312 137.262 111.452 131.405 116.501C128.39 119.1 125.476 121.907 122.198 124.169C120.773 125.154 119.229 126.058 117.991 127.281C116.761 128.494 116.626 129.596 116.206 131.211C115.457 134.084 111.739 135.489 109.415 137.005C106.128 139.15 102.643 140.662 98.9585 141.978C91.1555 144.764 83.2908 146.709 75.1328 148.147C71.1385 148.851 67.1777 149.314 63.1448 149.694C59.6681 150.021 55.9715 151.092 52.4992 150.237C53.4992 148.615 55.2714 147.642 56.6517 146.389C58.4309 144.773 59.9441 142.859 61.2909 140.875C63.9118 137.013 65.7506 132.869 66.1726 128.184C66.5533 123.967 66.1169 118.924 63.5716 115.362C62.6924 114.131 60.9528 113.797 60.1662 112.688C59.3835 111.587 59.682 109.69 59.2535 108.406C58.1632 105.138 54.9268 101.089 52.0785 99.1917C48.9886 97.1323 44.4685 96.3761 40.8993 97.449C34.2866 99.4371 30.2246 106.5 27.1986 112.209C25.5458 108.733 28.3137 103.575 25.0847 100.728C22.3612 98.3264 20.1996 102.979 19.2887 104.969C15.0128 114.312 14.0415 124.221 12.2502 134.218C11.5201 133.498 11.8942 131.652 11.9629 130.794C12.0907 129.197 12.0785 127.63 12.082 126.026C12.0907 121.974 12.8442 117.904 12.4987 113.855C12.2993 111.515 11.5527 106.58 8.15095 107.358C5.26605 108.017 3.459 112.072 2.55254 114.551C1.24509 118.127 0.943232 121.667 1.02463 125.444C1.11463 129.617 0.319081 133.722 0.126342 137.89C-0.248269 145.986 0.121782 154.011 2.44572 161.824C6.25116 174.618 15.0011 185.248 26.6788 191.667C33.1128 195.204 40.2504 197.442 47.5888 197.923C51.5657 198.184 55.4049 197.711 59.3478 197.3C63.2387 196.894 67.1499 196.706 71.0342 196.231C79.6842 195.17 88.113 192.433 95.9755 188.75C100.114 186.811 104.006 184.431 108.077 182.363C109.711 181.535 110.814 180.497 112.208 179.344C113.59 178.201 113.972 178.111 115.544 178.111C115.083 176.879 116.429 176.499 117.028 175.718C116.994 176.097 116.96 176.475 116.927 176.853C117.383 175.863 117.808 175.873 118.201 176.882C118.59 175.752 118.878 174.591 119.347 173.49C121.141 174.397 120.99 176.555 123.39 174.98C125.366 173.683 127.183 172.154 129.197 170.883C133.786 167.988 137.743 164.221 142.344 161.359C142.344 164.147 142.541 166.958 142.168 169.731C141.814 172.368 140.829 174.833 140.045 177.357C138.601 182.015 138.501 186.992 136.9 191.602C136.238 193.512 134.513 195.109 134.018 196.967C133.514 198.864 134.678 200.383 132.726 201.628C131.349 202.506 129.629 202.877 128.104 203.407C125.779 204.218 123.572 205.361 121.308 206.33C110.691 210.877 100.336 215.508 90.4993 221.622C81.1644 227.423 71.687 233.415 63.1118 240.305C55.6695 246.285 48.1464 254.017 46.3346 263.772C44.5767 273.234 49.2607 283.391 58.6655 286.507C63.5555 288.127 69.0838 287.927 74.1763 287.997C79.656 288.072 85.4629 286.752 90.8504 285.797C96.54 284.789 102.132 283.21 107.838 282.309C113.313 281.445 118.334 279.513 123.72 278.323C129.455 277.055 135.338 276.367 141.106 275.227C143.702 274.713 146.246 273.955 148.85 273.48C151.7 272.96 154.582 272.764 157.404 272.075C162.879 270.738 168.121 268.582 173.62 267.338C176.092 266.778 178.527 266.029 181 265.506C183.277 265.025 185.051 263.745 187.333 264.796C189.176 265.645 190.647 267.1 192.392 268.114C194.654 269.429 197.04 270.607 199.4 271.738C204.14 274.012 209.057 275.583 214.013 277.29C219.22 279.084 224.333 281.128 229.727 282.313C235.256 283.526 240.898 283.864 246.466 284.825C257.869 286.791 269.175 287.673 280.75 287.745C286.601 287.781 292.451 287.088 298.288 287.17C303.455 287.243 307.948 288.407 312.673 285.661C320.223 281.274 328.98 274.665 328.795 265.066C328.626 256.372 323.408 248.066 318.515 241.209C312.571 232.881 304.097 227.017 295.792 221.273C286.941 215.151 276.998 210.922 267.695 205.578C262.938 202.845 258.55 199.905 253.384 197.963C250.917 197.036 248.512 195.962 246.074 194.964C244.113 194.161 241.282 193.717 239.603 192.385C238.556 191.553 238.455 190.295 238.179 189.059C237.566 186.324 236.604 183.73 235.671 181.092C233.87 175.999 232.673 170.811 231.899 165.469C231.161 160.377 229.523 155.081 230.371 149.906C235.951 155.301 241.684 160.486 247.393 165.738C249.533 167.706 251.632 169.715 253.783 171.671C255.398 173.14 257.417 175.321 259.667 175.757C262.542 176.314 261.492 173.136 263.465 172.643C264.671 172.343 268.309 175.406 269.263 176.011C275.307 179.847 282 182.277 288.649 184.888C295.62 187.625 302.789 190.057 310.291 190.746C317.22 191.384 324.305 190.566 330.992 188.679C344.308 184.921 354.107 176.006 361.298 164.449C369.493 151.279 375.455 135.853 374.973 120.132Z" fill="black"/>
<path fill-rule="evenodd" clip-rule="evenodd" d="M171.453 91.4229C171.451 91.4269 171.43 91.4705 171.43 91.4705C171.455 91.4531 171.463 91.4373 171.453 91.4229Z" fill="black"/>
<path fill-rule="evenodd" clip-rule="evenodd" d="M172.096 91.5932C172.046 91.1736 171.938 90.7632 171.773 90.3609C171.332 91.0594 170.937 91.3587 171.517 92.0984C171.71 91.9299 171.903 91.7618 172.096 91.5932Z" fill="black"/>
<path fill-rule="evenodd" clip-rule="evenodd" d="M202.803 191.43C203.297 190.905 202.433 190.708 202.105 190.701C202.138 191.263 201.859 192.612 202.63 192.873C202.445 192.364 202.503 191.883 202.803 191.43Z" fill="black"/>
<path fill-rule="evenodd" clip-rule="evenodd" d="M189.794 81.6922C188.947 83.328 190.819 83.8354 191.903 83.0452C192.718 82.451 193.201 80.9363 193.335 79.9647C193.768 76.8207 191.567 73.8279 190.469 71.0379C190.186 70.3168 189.797 67.8435 188.884 67.7758C187.834 67.6976 187.757 69.9754 187.743 70.5631C187.703 72.3354 188.172 74.1406 188.722 75.8134C189.315 77.6169 190.784 79.7818 189.794 81.6922Z" fill="black"/>
<path fill-rule="evenodd" clip-rule="evenodd" d="M193.825 75.1319C197.083 78.0309 199.688 73.2024 199.461 70.3464C199.405 69.6388 198.926 67.0295 197.583 67.9791C196.909 68.456 197.484 70.0063 197.162 70.6869C195.604 73.9864 194.104 68.8682 193.055 68.4664C191.779 67.9769 191.65 69.6531 191.652 70.5492C191.655 72.328 192.502 73.9538 193.825 75.1319Z" fill="black"/>
<path fill-rule="evenodd" clip-rule="evenodd" d="M182.001 75.5823C182.768 74.3747 183.712 72.755 183.816 71.3081C183.977 69.0593 182.667 69.247 181.587 70.8159C180.825 71.9244 180.254 73.8044 178.571 73.337C176.493 72.761 177.128 69.9689 175.965 68.6423C173.029 72.5847 178.586 80.9555 182.001 75.5823Z" fill="black"/>
<path fill-rule="evenodd" clip-rule="evenodd" d="M186.402 87.647C187.617 87.9093 190.784 87.8129 189.686 85.9538C188.303 83.6125 183.701 87.0632 186.402 87.647Z" fill="black"/>
<path fill-rule="evenodd" clip-rule="evenodd" d="M228.954 17.8209C229.176 17.1591 228.871 17.0389 228.34 16.5178C227.837 16.9809 228.481 17.4681 228.954 17.8209Z" fill="black"/>
<path fill-rule="evenodd" clip-rule="evenodd" d="M251.608 137.685C252.409 137.813 252.667 137.389 252.381 136.414C251.116 136.333 250.859 136.756 251.608 137.685Z" fill="black"/>
<path fill-rule="evenodd" clip-rule="evenodd" d="M207.851 35.4346C208.735 35.8386 208.397 36.6674 208.381 37.3676C208.837 36.8733 209.757 35.9689 209.382 35.2587C208.805 34.1637 207.298 35.1818 207.851 35.4346Z" fill="black"/>
<path fill-rule="evenodd" clip-rule="evenodd" d="M177.745 21.6499C177.61 21.3871 177.476 21.1243 177.341 20.8615C176.792 21.3019 175.945 22.466 176.817 23.0333C177.174 22.5994 177.484 22.1385 177.745 21.6499Z" fill="black"/>
<path fill-rule="evenodd" clip-rule="evenodd" d="M188.35 29.3769C189.451 30.2387 188.923 27.5929 188.89 27.377C188.726 27.6872 187.794 28.9412 188.35 29.3769Z" fill="black"/>
<path fill-rule="evenodd" clip-rule="evenodd" d="M187.741 28.0334C187.657 27.8149 187.573 27.596 187.489 27.377C187.042 27.7897 186.496 28.6319 187.233 29.1145C187.435 28.7766 187.604 28.4161 187.741 28.0334Z" fill="black"/>
<path fill-rule="evenodd" clip-rule="evenodd" d="M194.725 37.1187C194.815 37.2012 194.905 37.2842 194.995 37.3676C195.358 36.6361 194.945 36.0871 194.259 36.0645C194.308 36.475 194.463 36.8264 194.725 37.1187Z" fill="black"/>
<path fill-rule="evenodd" clip-rule="evenodd" d="M165.257 119.392C165.694 119.095 166.089 118.756 166.446 118.376C165.155 117.587 165.928 119.297 164.374 118.247C164.04 118.71 164.586 119.745 165.257 119.392Z" fill="black"/>
<path fill-rule="evenodd" clip-rule="evenodd" d="M219.51 191.135C220.002 190.382 220.09 190.404 219.419 189.832C218.859 190.763 218.917 190.524 219.51 191.135Z" fill="black"/>
<path fill-rule="evenodd" clip-rule="evenodd" d="M116.903 71.282C117.171 71.5604 117.438 71.8393 117.705 72.1173C117.83 71.7529 118.51 70.7225 118.048 70.3798C117.667 70.6804 117.285 70.981 116.903 71.282Z" fill="black"/>
<path fill-rule="evenodd" clip-rule="evenodd" d="M126.409 74.0384C125.983 73.967 124.962 73.6555 124.726 74.0527C125.35 74.5648 126.759 74.0971 126.409 74.0384Z" fill="black"/>
</svg>
