<svg width="375" height="288" viewBox="0 0 375 288" fill="none" xmlns="http://www.w3.org/2000/svg">
<path fill-rule="evenodd" clip-rule="evenodd" d="M115.324 111.057C117.294 101.999 119.151 92.7439 122.075 84.039C123.905 78.5916 125.844 73.1938 127.786 67.8015C128.055 67.053 128.169 66.3314 128.693 65.9585C129.393 65.4609 130.841 65.4715 131.63 65.3004C142.848 62.8679 154.182 61.0115 165.553 59.9671C178.53 58.7752 191.181 59.3206 204.021 61.8208C215.002 63.9587 225.875 66.9055 236.629 70.2799C238.21 70.7757 239.788 71.2821 241.364 71.8029C242.098 72.0455 243.316 72.1693 243.956 72.6757C245.324 73.7582 245.788 78.1932 246.301 80.0719C246.987 82.5906 247.388 86.0503 248.711 88.1929C250.683 91.3818 253.684 94.1482 256.127 96.7996C264.656 106.052 274.005 114.493 285.019 119.067C302.059 126.144 320.027 130.58 337.679 134.965C338.09 135.067 338.501 135.169 338.912 135.27C334.342 141.252 329.772 147.235 325.203 153.217C322.627 156.59 320.051 159.963 317.475 163.335C316.15 165.069 316.295 165.379 314.422 164.896C305.036 162.475 295.666 159.835 286.45 156.617C281.932 155.04 277.337 153.403 273.133 150.848C267.347 147.333 261.917 142.986 256.632 138.522C251.907 134.532 247.293 130.357 242.762 126.064C241.869 125.218 238.646 121.138 237.601 121.404C236.7 121.633 235.139 124.058 234.479 124.765C232.733 126.633 230.98 128.493 229.216 130.338C226.409 133.273 223.542 136.867 220.263 139.076C216.807 141.404 212.847 142.99 209.2 144.844C207.166 145.878 205.13 146.908 203.093 147.936C202.561 148.204 201.819 148.787 201.245 148.801C199.547 148.844 197.082 147.213 195.508 146.577C191.463 144.945 187.447 143.208 183.474 141.347C174.989 137.372 165.664 133.054 158.681 125.901C157.463 124.654 156.272 123.257 155.466 121.59C155.186 121.012 154.771 120.208 154.742 119.525C154.696 118.437 155.214 118.224 155.983 117.543C159.955 114.034 164.238 110.975 168.45 107.89C169.439 107.166 170.431 106.444 171.426 105.73L122.213 110.402C119.916 110.621 117.62 110.838 115.324 111.057Z" fill="#FF7A00"/>
<path fill-rule="evenodd" clip-rule="evenodd" d="M188.606 0.270031C193.806 0.550425 199.136 0.836153 204.29 1.70154C209.428 2.56323 214.222 4.76845 218.866 7.43882C227.239 12.2527 235.796 18.1046 241.181 27.3646C243.699 31.6944 245.753 36.2277 249.228 39.6359C250.041 40.4327 250.927 41.3908 252.006 41.6348C252.864 41.8286 253.621 41.4182 254.461 41.369C256.065 41.2749 256.672 42.2743 256.672 44.1577C257.876 43.5896 259.186 43.0757 260.499 43.2844C261.596 43.4592 262.469 44.2416 263.523 44.5704C265.424 45.164 267.285 44.2764 269.093 43.6146C273.66 41.9441 278.677 40.6789 283.475 41.2749C286.636 41.6677 290.466 43.2881 288.829 48.1011C287.472 52.0937 282.397 54.1148 279.191 55.1082C276.464 55.9532 272.798 55.1991 273.028 59.6471C273.189 62.752 273.587 66.0823 276.378 67.0896C277.908 67.642 283.33 68.4652 280.164 71.2668C277.826 73.3352 277.009 76.9767 275.231 79.7115C272.964 83.1972 269.891 86.0151 266.299 87.2872C262.279 88.711 258.026 88.4378 253.897 88.9902C256.805 93.735 261.004 96.998 264.826 100.606C268.844 104.4 272.721 108.546 277.372 111.25C281.541 113.674 286.044 115.357 290.35 117.413C294.872 119.571 299.425 121.705 304.093 123.387C313.508 126.779 323.411 129.149 333.091 131.23C337.868 132.257 342.551 132.106 347.376 132.198C352.326 132.292 357.272 133.318 362.131 134.371C364.486 134.883 366.864 135.205 369.219 135.714C370.349 135.958 374.823 136.497 374.984 138.454C375.243 141.641 372.329 143.427 370.194 144.316C369.282 144.696 367.813 144.64 367.024 145.163C366.169 145.728 366.503 146.559 366.405 147.652C366.263 149.242 365.543 150.385 364.441 151.266C363.534 151.992 362.441 151.963 363.066 153.337C363.354 153.97 364.076 154.369 364.408 155.037C364.788 155.799 364.963 156.634 364.886 157.511C364.751 159.047 363.893 160.218 362.696 160.761C360.784 161.629 358.539 161.015 356.58 160.733C353.302 160.262 349.976 160.214 346.742 159.367C343.369 158.483 340.088 157.12 336.712 156.215C334.981 155.751 333.246 155.362 331.555 154.718C330.454 154.3 328.863 153.212 327.69 153.553C326.592 153.872 325.734 155.439 325.016 156.349C324.025 157.605 323.066 158.894 322.059 160.132C321.392 160.951 320.707 161.754 319.979 162.498C319.742 162.74 318.279 163.797 318.259 164.081C318.202 164.883 319.798 164.869 320.14 165.188C322.128 167.045 319.142 168.22 317.853 168.127C314.883 167.912 311.898 167.482 308.956 166.966C301.952 165.737 294.967 164.411 288.27 161.638C281.646 158.894 275.182 155.976 269.056 151.886C263.174 147.962 257.486 143.524 251.931 138.989C249.236 136.788 246.522 134.507 244.246 131.703C242.02 128.961 240.205 125.812 238.359 122.714C233.939 127.761 229.685 133.069 224.936 137.696C220.419 142.097 214.989 144.449 209.735 147.307C209.906 148.606 215.041 149.384 215.979 149.722C220.262 151.262 224.373 153.735 228.539 155.674C235.47 158.9 242.046 163.098 244.354 172.057C246.623 180.866 243.991 189.733 240.781 197.69C236.992 207.084 232.492 215.785 227.051 223.974C224.737 227.458 222.243 230.665 219.704 233.909C217.537 236.678 215.679 239.956 216.587 243.891C218.331 243.247 218.651 244.855 217.51 246.217C216.497 247.427 214.746 247.662 213.392 247.862C209.291 248.47 205.053 248.256 200.947 247.804C193.47 246.98 185.976 244.749 179.206 240.91C175.838 239.001 174.62 242.08 172.303 244.465C170.481 246.342 167.972 247.558 166.587 249.986C165.447 251.983 166.191 255.139 168.558 254.391C170.399 253.808 171.878 251.38 173.829 251.286C177.29 251.12 170.759 256.959 169.923 257.672C171.578 259.421 173.454 257.022 175.122 256.622C176.722 256.238 177.169 257.217 176.316 258.794C175.651 260.023 173.563 260.894 174.952 262.389C176.103 263.628 178.654 264.28 180.067 264.823C184.475 266.517 188.861 267.723 193.45 268.496C194.932 268.746 197.307 268.586 198.509 269.828C200.093 271.466 199.329 274.181 198.527 276.058C195.489 283.166 189.172 286.66 182.684 287.172C178.688 287.487 174.655 287.182 170.646 287.437C166.254 287.716 161.852 288.131 157.449 287.96C150.372 287.684 145.869 281.637 142.341 274.987C140.099 270.761 138.033 266.414 136.092 261.986C135.334 260.257 133.747 258.465 133.477 256.521C133.233 254.772 134.177 253.369 135.095 252.13C137.509 248.873 140.414 246.387 143.252 243.695C144.872 242.158 145.495 240.885 146.217 238.649C146.824 236.766 147.992 235.961 149.02 234.458C150.151 232.806 149.796 232.513 148.914 231.163C147.991 229.748 148.354 227.665 148.741 226.064C149.297 223.768 150.49 223.263 152.271 222.523C153.895 221.849 155.272 220.665 156.712 219.567C163.825 214.145 170.528 208.009 177.729 202.738C184.834 197.537 192.259 192.943 199.039 187.14C193.533 186.265 188.679 182.75 183.485 180.669C180.819 179.601 178.179 178.46 175.6 177.123C174.615 176.613 173.468 176.159 172.589 175.408C171.706 174.654 171.028 173.662 170.102 172.948C167.906 171.254 165.296 170.29 162.934 168.97C160.384 167.544 157.867 165.985 155.497 164.171C153.285 162.477 151.161 160.54 149.321 158.303C147.855 156.52 146.43 154.197 144.356 153.378C144.573 156.794 148.153 159.622 150.114 161.678C153.298 165.013 156.607 167.848 160.165 170.603C156.174 174.645 151.31 177.277 146.636 180.007C141.381 183.077 136.273 186.479 131.04 189.597C126.606 192.237 121.942 194.272 117.435 196.726C112.573 199.373 107.569 201.593 102.496 203.607C97.9055 205.429 93.5832 207.373 89.2515 209.931C85.0406 212.418 80.5347 214.32 76.03 215.917C70.9687 217.71 66.1396 219.416 61.2717 221.875C56.8823 224.091 52.4749 225.508 47.8293 226.714C46.2948 227.112 44.3245 227.842 43.2497 226.086C42.435 224.755 42.3126 222.703 42.0788 221.137C41.1833 215.147 41.1123 209.062 40.3066 203.062C37.249 204.153 34.3525 205.495 31.1266 205.668C29.0986 205.777 27.8661 206.024 27.3609 208.641C28.5341 208.798 32.7258 208.867 32.8392 210.831C32.9416 212.603 30.4052 212.621 29.5058 212.67C27.8963 212.756 26.4375 212.444 25.5785 214.307C26.8443 214.859 29.6501 213.852 30.2106 215.864C30.9328 218.46 27.6535 218.453 26.4736 218.663C24.415 219.027 24.6265 220.938 24.7677 222.981C24.9532 225.669 25.0936 228.36 25.4008 231.035C26.0566 236.749 27.1805 242.376 27.7127 248.111C28.1729 253.07 28.4306 257.833 25.4322 261.785C24.2267 263.374 22.551 265.203 20.6564 265.392C18.7335 265.583 18.7685 263.992 17.5716 262.82C16.8382 262.102 15.8668 261.955 15.0028 261.568C13.9518 261.097 12.9322 260.408 11.9879 259.693C10.2475 258.376 8.72632 256.742 7.49584 254.778C2.68365 247.091 0.963278 235.607 0.486644 226.288C0.183467 220.361 0.485898 214.427 0.945939 208.524C1.19369 205.345 1.44297 202.164 1.76843 198.994C1.86908 198.012 2.03767 197.028 2.10028 196.043C2.13609 195.479 1.90607 194.339 2.14966 193.799C1.83856 194.488 1.2876 193.978 0.740435 193.435C-0.388996 192.314 -0.0412977 190.16 0.56282 188.686C2.3831 184.242 7.83824 184.07 11.3872 183.724C20.9267 182.795 29.9894 179.771 39.1224 176.542C37.8334 174.26 39.8606 172.754 41.432 171.97C43.8554 170.761 46.3576 169.698 48.8037 168.544C54.3271 165.936 59.7356 163.505 65.5194 161.841C70.7585 160.334 75.828 157.832 80.9968 155.999C86.3374 154.104 91.5815 151.938 96.8343 149.731C107.238 145.36 117.651 140.894 127.748 135.592C130.3 134.252 132.738 132.698 135.201 131.147C137.202 129.888 139.55 128.965 141.247 127.145C142.866 125.408 143.836 122.993 145.597 121.415C147.182 119.994 149.351 119.975 150.665 118.21C152.441 115.825 154.561 114.776 156.973 113.377C157.747 112.928 162.847 110.657 162.743 109.368C159.099 109.368 155.358 110.65 151.754 111.247C147.942 111.878 144.134 112.58 140.294 112.929C134.072 113.494 127.853 113.341 121.658 112.544C120.732 112.425 117.018 111.524 116.378 112.698C115.89 113.592 117.103 114.657 117.115 115.618C117.133 117.029 116.171 117.785 115.083 117.295C112.962 116.342 113.273 112.303 113.471 110.254C113.85 106.334 114.693 102.449 115.43 98.6082C111.056 101.24 106.903 104.619 103.136 108.332C100.219 111.208 97.5839 115.108 94.1602 117.159C90.8731 119.128 88.9185 117.448 89.0534 113.113C89.115 111.126 89.4555 109.241 90.0376 107.391C90.3126 106.517 91.4419 104.043 90.9127 103.112C87.9084 105.944 84.9241 108.783 81.7703 111.383C79.5407 113.221 76.3085 116.087 73.398 115.358C70.8271 114.714 71.0785 111.37 71.8937 109.117C72.6001 107.162 73.8702 105.427 75.129 103.934C76.1701 102.701 77.6497 101.595 78.171 99.8855C74.7179 101.72 71.1633 103.108 67.5459 104.397C64.9738 105.313 63.1757 109.12 60.1847 108.557C57.1902 107.994 58.3827 103.62 59.5779 101.718C60.4142 100.388 61.5714 99.2158 62.6936 98.2326C63.7876 97.273 65.4528 96.4373 65.9913 94.841C62.4932 95.6174 58.9762 96.9665 55.3768 96.7179C53.2394 96.57 49.6714 95.4667 50.0935 92.07C50.5206 88.6303 54.395 88.3668 56.5736 87.7254C59.5438 86.8503 62.3865 85.2081 65.2527 83.9555C71.035 81.4279 76.9299 79.4008 82.8459 77.3862L84.7146 76.7499C91.3925 74.4747 98.1079 72.537 104.869 70.6467C108.21 69.7127 111.54 68.6938 114.908 67.8966C118.166 67.1253 121.476 66.6787 124.71 65.7572C121.985 60.8946 125.284 56.8992 128.848 54.585C126.588 54.0448 124.29 53.7201 122.049 53.0653C120.136 52.506 118.292 51.6471 116.364 51.1522C113.052 50.3021 109.744 49.8551 106.916 47.4305C101.572 42.848 101.118 35.5557 105.62 30.0378C110.164 24.4689 116.834 21.8611 123.253 21.6018C130.437 21.3124 138.611 22.9584 145.334 25.9654C148.636 27.4425 152.074 29.3208 154.905 31.8367C156.831 33.5476 159.876 36.8269 162.46 36.8269C159.365 32.4011 155.566 27.8247 155.007 21.8309C154.477 16.1567 156.655 10.1254 160.308 6.45471C167.609 -0.876867 179.656 -0.213169 188.606 0.270031ZM146.986 243.478C145.08 246.982 142.445 249.826 139.957 252.734C139.099 253.736 137.376 255.012 137.293 256.583C137.226 257.866 138.557 259.308 139.138 260.316C142.212 265.646 144.743 271.533 148.498 276.267C152.741 281.617 157.585 282.657 163.594 282.672C170.267 282.689 177.028 283.676 183.689 283.26C189.331 282.908 194.893 279.938 197.699 273.901C195.871 272.787 193.27 273.318 191.289 273.343C188.588 273.376 185.951 273.319 183.282 272.763C180.864 272.26 178.473 271.505 176.198 270.402C175.021 269.832 173.857 269.179 172.773 268.386C171.979 267.807 171.383 266.918 170.603 266.349C167.728 264.25 164.407 270.924 161.333 270.795C159.451 270.717 160.132 268.528 160.916 267.304C162.33 265.093 164.796 263.728 166.659 262.116C164.925 260.229 162.966 262.208 161.315 263.194C159.251 264.426 157.106 265.94 154.8 266.402C154.973 262.889 159.016 261.005 161.246 259.577C162.239 258.94 163.483 258.35 163.727 256.952C163.911 255.9 163.596 254.404 163.503 253.342C163.385 251.991 163.297 251.56 162.081 251.179C160.606 250.717 159.12 250.851 157.643 250.274C153.598 248.695 150.452 246.352 146.986 243.478ZM15.5471 188.111C14.5594 188.435 13.5616 188.715 12.5585 188.965C10.5731 189.46 8.58499 189.974 6.59274 190.424C5.59342 190.649 4.48384 190.506 4.18937 191.634C4.038 192.212 4.41892 193.25 4.48423 193.85C4.60164 194.933 4.60921 196.031 4.62015 197.121C4.72433 207.167 2.94768 217.155 3.72992 227.2C4.3906 235.689 5.93696 246.424 11.2123 252.747C13.4892 255.476 16.2904 258.439 19.1574 260.305C21.4048 261.766 24.5445 258.098 25.0034 255.558C25.3325 253.738 24.7838 251.818 24.4268 250.063C23.9686 247.815 23.5046 245.568 23.0511 243.319C22.083 238.519 21.2024 233.673 20.9243 228.738C20.8329 227.117 20.8525 225.555 20.9298 223.94C20.9718 223.064 21.3209 220.951 20.8023 220.2C20.1316 219.229 18.5987 219.864 17.6911 219.947C16.6959 220.038 15.7245 219.968 14.7524 219.668C12.4381 218.952 12.0326 216.778 14.5594 215.77C16.3237 215.067 19.5485 216.086 21.0306 214.733C22.7722 213.143 19.2525 212.925 18.4307 212.883C17.3362 212.828 13.7062 213.167 13.8916 210.755C14.0286 208.968 17.1535 208.849 18.2468 208.773C20.5827 208.611 23.5379 209.645 24.5476 206.316C24.952 204.982 22.5161 204.305 21.9046 203.643C20.4191 202.036 19.9323 199.28 19.8044 197.022C19.6789 194.802 21.5276 187.105 18.7108 186.901C17.8459 186.839 16.4082 187.828 15.5471 188.111ZM154.085 232.53C152.428 234.864 150.995 237.42 149.451 239.859C153.072 242.221 156.776 244.121 160.521 246.151C162.223 247.076 163.417 247.808 165.065 246.407C166.247 245.402 167.134 243.975 168.287 242.93C169.946 241.429 171.678 240.053 173.378 238.623C168.363 236.459 163.27 234.561 158.256 232.392C156.38 231.582 155.439 230.624 154.085 232.53ZM112.785 225.119C113.857 226.404 111.792 229.966 111.386 231.185C114.711 230.874 118.01 230.253 121.276 229.456C122.388 229.185 121.978 230.785 121.561 231.313C121.047 231.966 120.018 232.164 119.33 232.397C116.798 233.255 114.202 233.667 111.604 234.125C112.793 235.854 115.653 238.559 114.732 241.159C113.071 239.467 111.876 237.215 110.038 235.752C109.507 236.688 108.406 239.991 107.199 239.789C105.304 239.471 107.224 235.611 107.62 234.682C106.344 234.682 101.548 236.006 100.879 234.149C100.195 232.249 104.822 232.311 105.678 231.862L105.518 231.632L105.358 231.404C104.719 230.492 104.104 229.593 104.018 228.342C105.449 228.924 106.404 231.575 107.977 231.613C109.468 231.65 110.133 229.001 110.665 227.747C110.967 227.034 111.993 224.169 112.785 225.119ZM274.149 200.135C277.355 203.333 275.177 209.78 272.751 212.679C270.033 215.927 263.98 218.91 260.535 215.6C258.649 213.788 259.33 211.024 259.794 208.614C260.311 205.935 260.632 203.677 262.508 201.84C265.428 198.98 270.896 196.892 274.149 200.135ZM267.64 201.993C264.512 202.779 261.342 206.474 260.599 210.282C259.623 215.275 264.009 215.64 266.897 214.889C270.531 213.946 274.392 210.796 274.577 205.855C274.737 201.591 270.071 201.382 267.64 201.993ZM40.0105 180.406C35.3261 182.467 30.923 185.287 26.008 186.509C24.5084 186.883 23.8921 187.291 23.5215 188.943C23.0017 191.254 22.5094 193.597 22.8805 196.013C23.6505 201.027 29.554 200.413 32.8321 200.216C34.5153 200.115 37.7522 200.479 39.2122 199.237C40.2791 198.331 39.8316 196.63 39.6653 195.307C39.0435 190.359 39.7218 185.351 40.0105 180.406ZM295.409 132.619C293.684 133.004 290.702 134.665 293.175 136.749C294.825 138.138 297.28 138.306 299.218 138.65C303.004 139.32 307.045 139.899 310.33 142.423C316.417 147.101 315.672 155.928 313.851 163.152C315.162 164.065 319.014 158.096 319.74 157.125C322.683 153.187 325.638 149.261 328.606 145.349C329.876 143.676 319.464 137.895 318.529 137.375C313.583 134.624 308.966 132.813 303.419 132.341C300.788 132.117 298.012 132.039 295.409 132.619ZM273.935 117.978C273.463 119.386 274.291 120.025 275.051 120.998C279.304 126.437 282.299 134.134 284.667 140.886C285.848 144.253 286.675 147.648 287.406 151.175C288.124 154.636 290.402 155.561 293.133 156.543C299.422 158.807 306.042 159.564 312.353 161.799C314.044 162.398 314.376 158.004 314.482 156.889C314.784 153.718 314.504 150.408 313.094 147.613C310.429 142.33 305.087 141.206 300.322 140.306C297.597 139.792 294.007 139.26 291.85 137.058C290.768 135.952 290.614 134.684 291.459 133.311C292.998 130.806 295.708 130.484 298.129 130.28C299.309 130.181 306.611 131.053 306.85 130.032C303.214 128.631 299.482 127.707 295.899 126.106C293.105 124.856 290.288 123.676 287.468 122.507L284.647 121.338C281.779 120.149 279.153 118.703 276.402 117.272C275.368 116.734 274.42 116.535 273.935 117.978ZM335.609 140.893C334.698 142.341 333.795 143.556 333.112 145.183C332.316 147.08 330.994 148.29 329.89 149.92C335.626 151.116 341.099 152.636 346.626 154.828C349.463 155.953 352.394 156.509 355.297 157.315C357.732 157.991 360.327 159.04 362.848 158.42C359.976 153.742 352.318 155.035 350.301 149.37C348.929 145.516 352.301 142.441 355.059 141.773C359.875 140.604 365.009 140.514 369.9 140.098C369.952 137.886 352.195 136.74 350.439 136.561C347.322 136.242 344.068 135.551 340.957 135.424C338.069 135.305 337.125 138.484 335.609 140.893ZM267.851 124.712C266.14 126.667 264.466 128.664 262.757 130.621C261.634 131.907 260.112 133.278 259.226 134.81C258.096 136.768 260.076 137.709 261.396 138.635C264.727 140.973 268.169 143.156 271.558 145.38C274.602 147.379 277.769 149.922 281.13 151.091C282.927 151.716 284.615 152.687 286.349 153.507C285.513 144.634 281.203 136.575 277.229 129.178C276.316 127.479 275.373 125.805 274.461 124.106C274.001 123.252 273.148 121.234 272.184 121.06C270.759 120.802 268.714 123.725 267.851 124.712ZM354.994 147.296C357.078 148.707 359.166 149.424 361.516 148.358C362.094 148.079 362.667 147.784 363.232 147.474C361.666 144.949 357.035 146.488 354.994 147.296ZM182.442 116.416C178.749 118.385 174.798 120.346 171.587 123.315C170.401 124.411 167.752 126.714 168.372 128.803C168.902 130.591 171.835 132.114 173.227 132.659C180.554 135.526 188.892 133.44 195.637 138.701C197.463 140.125 198.058 141.986 199.414 143.858C200.64 145.551 202.193 145.341 203.841 144.638C206.005 143.716 207.999 142.303 210.172 141.397C211.283 140.934 213.171 140.627 213.287 138.855C213.83 130.501 212.322 119.858 206.093 114.746C199.1 109.009 189.453 112.68 182.442 116.416ZM178.481 135.884C178.303 136.943 185.234 138.861 185.987 139.106C190.172 140.469 194.082 143.709 198.418 144.232C199.171 142.245 193.166 139.08 192.217 138.672C187.883 136.812 183.033 136.474 178.481 135.884ZM314.592 132.174C319.846 134.72 324.94 137.837 329.345 142.171C330.864 143.666 334.555 136.572 335.381 135.485C328.382 135.141 321.485 133.562 314.592 132.174ZM216.377 82.2757C211.506 86.08 207.263 91.0548 201.915 93.971C203.588 94.2827 205.415 93.0017 207.014 92.5524C208.57 92.115 210.144 91.8265 211.659 91.2074C212.59 90.8271 216.434 88.371 217.155 90.0355C218.282 92.6358 210.344 94.4348 209.215 94.8781C205.404 96.3757 201.617 97.9441 197.844 99.5738C194.191 101.152 190.539 102.851 186.763 103.984C182.928 105.136 178.862 105.432 175.175 107.22C171.915 108.801 169.113 111.418 165.968 113.265C162.814 115.117 159.23 116.262 156.511 119.018C159.467 122.747 162.963 125.87 166.788 128.248C167.4 122.56 173.039 119.322 176.897 117.136C185.307 112.371 197.937 105.184 206.509 113.26C212.774 119.162 213.623 130.362 213.623 139.13C215.32 138.492 216.869 137.476 218.445 136.517C219.537 135.852 219.55 134.001 219.687 132.765C219.912 130.741 220.375 128.781 220.907 126.839C222.083 122.544 223.555 118.354 224.958 114.157C227.229 107.37 230.028 100.675 231.423 93.5342C232.334 88.8737 233.418 80.8635 228.665 78.5503C224.553 76.5496 219.716 79.6684 216.377 82.2757ZM195.103 63.3067C194.309 63.936 194.605 65.824 194.659 66.771C194.856 70.2154 194.733 73.6742 194.83 77.1246C194.949 81.3292 194.975 89.0388 198.642 91.3966C201.151 93.0087 204.27 90.5929 206.272 88.9475C209.659 86.1649 212.766 82.9333 216.2 80.217C220.271 76.9962 227.985 72.5412 231.88 78.5999C233.988 81.8787 233.693 86.7645 233.167 90.5795C232.473 95.6128 230.851 100.387 229.24 105.091C225.912 114.804 222.439 124.675 220.588 134.957C224.808 131.992 228.089 127.719 231.771 123.966C234.501 121.184 238.555 117.989 239.185 113.455C239.327 112.431 240.166 111.701 240.742 111.016C241.493 110.125 242.022 109.222 242.497 108.084C243.547 105.572 244.229 102.859 244.659 100.109C245.561 94.342 245.131 88.6011 244.299 82.8675C243.923 80.2746 244.475 77.4924 243.964 74.9649C243.609 73.21 242.562 73.3139 241.167 72.9146C236.149 71.4773 231.12 70.0837 226.098 68.6595C224.058 68.0807 221.84 66.995 219.722 67.0312C217.984 67.0609 216.524 68.2861 215.023 69.1738C212.56 70.631 208.645 73.1798 205.816 71.731C202.52 70.0424 206.361 66.2303 204.708 64.4267C203.575 63.1898 200.188 63.9314 198.652 63.6243C197.81 63.456 195.875 62.695 195.103 63.3067ZM246.969 113.114C244.572 113.561 243.184 114.79 241.863 117.202C240.522 119.653 240.362 120.867 242.275 122.785C244.338 124.853 246.497 126.897 248.687 128.76C251.463 131.121 254.542 132.908 257.286 135.327C258.488 136.387 263.942 128.081 264.888 126.943C266.193 125.371 267.533 123.796 268.934 122.349C269.445 121.821 271.05 120.596 271.051 119.697C271.053 117.425 266.791 115.392 265.42 114.767C262.348 113.366 259.126 112.8 255.853 112.742C252.951 112.69 249.843 112.578 246.969 113.114ZM257.65 103.12C255.4 104.533 253.049 105.723 250.785 107.107C249.981 107.597 244.916 110.113 245.171 111.616C250.872 111.189 256.548 110.049 262.23 111.354C264.782 111.94 267.214 112.922 269.347 114.735C270.962 116.107 272.193 118.743 273.797 116.397C270.523 114.203 267.574 111.296 264.671 108.473C263.4 107.238 262.093 106.075 260.803 104.873C260.036 104.159 258.77 102.418 257.65 103.12ZM122.808 70.2794C121.025 70.5753 119.287 71.1341 117.535 71.6137C110.44 73.5564 103.318 75.3006 96.2416 77.3565C82.1269 81.4567 67.5902 85.4108 54.1318 91.9801C55.2634 93.459 58.2619 92.3877 59.6662 92.0979C62.4155 91.5297 65.0833 90.5377 67.7993 89.7888C70.4556 89.0565 73.1218 88.1832 75.8002 87.5729C77.0338 87.2918 79.2097 86.9217 79.2595 89.1079C79.3301 92.2078 74.2362 94.5257 72.3663 95.6587C70.367 96.87 68.4316 98.2089 66.5283 99.6179C65.0236 100.732 62.2488 102.216 61.7608 104.43C66.6437 101.984 71.5292 99.5492 76.3815 97.0212C78.2094 96.0686 80.0613 95.1717 81.8013 94.01C82.9616 93.235 84.455 91.8757 85.8287 91.7537C87.6891 91.5882 87.9975 93.5847 87.2133 95.1958C86.2327 97.2128 84.2086 98.3508 82.7196 99.7621C80.8219 101.562 79.1422 103.685 77.4331 105.722C76.0147 107.413 74.188 109.078 73.4474 111.365C75.9975 112.373 78.8951 109.141 80.7689 107.543C83.7136 105.033 86.4567 102.302 89.266 99.5891C90.7033 98.2011 92.4163 95.9536 94.3081 95.539C96.7052 95.0136 96.5067 98.2534 95.925 100.039C94.6258 104.032 91.5839 107.36 91.3666 111.86C91.2328 114.631 93.218 113.576 94.5423 112.465C96.7727 110.593 98.2821 107.741 100.306 105.595C105.181 100.425 110.76 96.0148 116.79 92.9521C117.869 92.404 118.257 90.4362 118.585 89.2536C119.075 87.4885 119.638 85.7772 120.227 84.0519C121.516 80.2727 122.574 76.1883 124.38 72.6975C124.884 71.7241 126.184 70.7316 125.109 70.1593C124.524 69.8481 123.412 70.1792 122.808 70.2794ZM174.281 63.8868C172.454 64.1387 170.606 64.1159 168.776 64.3441C165.789 64.7161 167.092 69.011 166.611 71.5988C165.194 79.2167 158.364 80.6553 153.188 77.0616C150.276 75.0391 148.528 72.1405 146.962 68.7499C146.069 66.8169 145.405 66.5062 143.558 66.9899C142.29 67.322 141.137 67.2515 139.848 67.3618C138.225 67.501 138.084 67.9077 138.05 69.7331C138.021 71.3544 137.824 72.4772 136.911 73.7906C135.171 76.2917 132.254 77.9386 129.768 79.1954C127.278 80.455 124.458 81.3913 123.09 84.3682C122.401 85.869 121.662 87.6605 121.462 89.3667C121.244 91.2306 121.779 92.3872 120.86 94.1064C118.949 97.6812 118.073 101.587 117.106 105.65C116.791 106.973 116.667 107.517 117.889 107.881C119.642 108.403 122.132 107.611 123.931 107.527C125.215 107.468 125.965 104.793 126.382 103.709C127.193 101.6 128.188 99.6049 129.183 97.6097C131.441 93.0903 133.854 88.6011 136.802 84.6521C139.028 81.6719 142.314 77.9617 145.163 82.1496C147.94 86.2312 149.941 91.0113 153.281 94.5693C156.219 97.6983 159.246 97.7484 162.292 94.7826C165.292 91.8632 167.571 87.8794 169.436 83.9049C171.452 79.6072 172.972 75.0187 174.937 70.695C175.553 69.3398 178.397 65.6737 177.531 64.1034C176.945 63.0428 175.102 63.7737 174.281 63.8868ZM189.576 62.9496C187.969 63.0391 186.351 62.8257 184.743 62.7877C181.833 62.7195 179.4 62.8401 177.939 66.1361C176.649 69.0453 175.55 72.1401 174.373 75.1188C171.816 81.5898 169.307 88.2115 165.382 93.7178C161.903 98.5962 157.41 101.054 152.885 96.3937C150.879 94.3272 149.355 91.6615 147.915 89.0412C146.761 86.9403 145.444 83.2431 143.51 82.0183C141.354 80.653 138.886 83.7848 137.568 85.4845C135.353 88.3418 133.501 91.7018 131.722 94.9463C130.432 97.2999 129.197 99.7027 127.943 102.083C127.435 103.049 125.365 106.207 126.054 107.41C126.745 108.615 130.117 107.791 131.093 107.68C133.423 107.418 135.749 107.323 138.08 107.086C145.33 106.349 152.473 104.466 159.742 103.963C164.53 103.631 169.248 102.537 173.961 101.543C178.543 100.577 183.156 99.9174 187.69 98.6402C190.355 97.8889 193.026 97.1372 195.687 96.358C196.607 96.0886 200.958 95.3535 201.229 93.939C198.233 93.3208 196.659 91.9467 195.597 88.4911C194.266 84.1628 194.112 79.3396 193.998 74.7794C193.955 73.0249 193.948 71.27 193.947 69.5147V67.4092C193.946 66.1505 194.406 63.8664 193.446 62.9936C192.558 62.1857 190.605 62.8911 189.576 62.9496ZM249.057 90.8986C249.183 96.6015 248.32 102.349 246.339 107.56C248.411 107.952 250.877 104.878 252.616 103.848C253.286 103.451 257.72 101.546 256.235 100.09C253.503 97.4108 251.712 93.6682 249.057 90.8986ZM308.497 95.5362C309.105 96.9544 308.354 98.7543 307.947 100.099C311.11 100.998 314.26 101.881 317.447 102.643C319.848 103.218 319.01 104.921 316.926 104.804C314.026 104.64 311.329 103.188 308.444 103C305.696 102.82 305.372 105.657 303.029 106.203C303.109 104.642 304.176 103.559 304.944 102.387C303.679 101.62 302.387 100.908 301.161 100.063C300.525 99.6248 298.77 97.7892 299.446 96.8139C300.128 95.8293 301.917 97.6742 302.554 98.0805C303.459 98.6583 305.265 99.9314 306.33 99.5664C307.788 99.066 307.484 96.5908 308.497 95.5362ZM262.923 58.3777C261.64 58.483 260.244 57.9729 259.029 58.6402C257.817 59.3062 256.371 60.7638 255.357 61.7744C254.376 62.7529 253.888 63.9411 252.669 64.519C251.45 65.0963 250.202 65.0453 249.732 66.8067C250.837 67.1652 253.007 66.6898 253.873 67.6503C255.133 69.0481 252.935 70.5864 252.024 71.0266C250.716 71.6573 249.647 71.4528 248.311 71.334C247.729 71.283 247.734 71.0715 247.258 71.4124C245.491 72.6748 246.713 77.1664 247.287 78.8053C250.091 86.8253 259.673 84.1243 265.198 83.303C263.44 81.209 260.56 78.899 260.415 75.6095C260.372 74.63 260.577 72.8798 261.641 72.7981C262.491 72.7332 263.512 74.2521 264.042 74.8508C265.611 76.6247 267.643 79.5673 269.913 79.8219C272.949 80.1623 275.284 74.3504 276.543 71.8159C274.996 71.4722 273.301 71.4926 272.401 69.6979C271.332 67.565 271.313 64.2977 271.332 61.8963C271.348 59.8521 271.899 57.6153 269.587 57.5147C267.458 57.4224 265.073 58.2015 262.923 58.3777ZM59.1162 63.6216C58.6741 64.762 56.7525 65.209 55.9087 65.5142C52.6996 66.6727 49.5663 68.1447 46.4376 69.5884C40.1215 72.5032 33.8743 75.7227 28.1066 80.006C27.0286 80.8074 27.557 79.2621 27.8367 78.7052C28.4643 77.4562 29.7831 76.5723 30.7681 75.8075C33.4334 73.7363 36.2565 72.2815 39.2036 70.8962C45.1008 68.1247 51.0878 65.1863 57.1357 62.9412C57.8374 62.6806 59.7105 62.0893 59.1162 63.6216ZM132.37 69.2689C131.198 69.4122 129.824 69.0973 128.697 69.5494C127.228 70.1389 127.47 71.3317 127.035 72.7981C126.298 75.2872 125.508 77.7558 124.738 80.2319C127.587 80.0747 130.316 77.4085 132.731 75.8739C134.097 75.0048 138.85 72.1215 137.417 69.4817C136.509 67.8108 133.672 69.1093 132.37 69.2689ZM164.795 64.9294C163.031 64.8914 161.091 65.523 159.305 65.6278C156.911 65.7683 154.554 66.3068 152.163 66.4371C150.59 66.5229 149.045 66.905 147.489 67.1555C149.038 71.3962 152.06 75.1054 155.857 76.6414C158.853 77.8532 163.045 78.0591 165.092 74.7061C166.27 72.7768 168.193 65.0017 164.795 64.9294ZM256.659 47.4124C254.735 48.9234 253.193 51.0882 251.586 53.0198C247.561 57.8574 243.396 63.0368 241.653 69.6682C241.414 70.5762 243.229 71.379 243.72 71.4143C244.758 71.4885 244.969 70.8693 245.377 69.8328C246.385 67.2654 246.772 64.397 248.385 62.208C250.351 59.539 252.719 56.9368 255.001 54.6439C256.552 53.0857 260.353 50.8921 260.798 48.3158C261.326 45.2707 257.824 46.4978 256.659 47.4124ZM207.036 65.0337C205.948 65.408 205.861 66.598 205.613 67.8803C204.613 73.0319 214.727 67.411 216.135 66.5688C215.666 64.915 211.057 65.2165 209.99 65.1515C209.158 65.1014 207.84 64.7573 207.036 65.0337ZM266.776 67.7097C265.277 67.7778 265.968 60.5412 267.672 61.2689C269.133 61.8936 267.737 67.6652 266.776 67.7097ZM56.0931 59.3888C53.7984 61.7303 50.1955 62.0443 47.3426 62.7961C43.1383 63.9035 38.9706 65.3152 34.8005 66.5892C32.1672 67.3934 33.6496 65.4752 34.9684 64.755C37.2352 63.5154 39.8018 62.855 42.2248 62.1732C44.8478 61.4349 47.5285 60.9419 50.1366 60.1368C51.9426 59.5789 54.2718 58.1519 56.0931 59.3888ZM127.484 9.05969C130.034 9.61297 132.58 10.5776 134.815 12.1567C136.666 13.4646 136.592 15.4986 134.246 14.3184C123.302 8.81111 109.722 12.147 99.0348 17.0235C97.8557 17.5615 97.9436 16.3882 98.3001 15.4838C98.7905 14.2377 99.8394 13.5146 100.846 12.9359C103.871 11.1972 107.357 10.2135 110.646 9.49146C116.127 8.28752 121.977 7.86456 127.484 9.05969ZM129.083 1.1492C130.474 1.59488 132.071 2.70097 132.922 4.10433C133.917 5.74607 133.126 6.58549 131.745 5.61992C130.203 4.54212 128.793 3.46757 127.024 2.89807C126.09 2.59801 126.128 1.9056 126.799 1.2976C127.427 0.728372 128.401 0.930297 129.083 1.1492Z" fill="black"/>
</svg>
