<svg width="70" height="70" viewBox="0 0 70 70" fill="none" xmlns="http://www.w3.org/2000/svg">
<path fill-rule="evenodd" clip-rule="evenodd" d="M0 35C0 15.67 15.67 0 35 0C54.33 0 70 15.67 70 35C70 54.33 54.33 70 35 70C15.67 70 0 54.33 0 35Z" fill="#3D9AE8"/>
<path fill-rule="evenodd" clip-rule="evenodd" d="M47.128 44.9299V46.8968L34.9719 54.7816L23.0851 46.8431V44.989L26.6404 47.0955L27.0361 47.3292L27.4014 47.0499L35.081 41.1572L42.758 47.0499L43.126 47.3311L43.5227 47.0929L47.128 44.9299Z" fill="white"/>
<path fill-rule="evenodd" clip-rule="evenodd" d="M43.3615 17.5518L35.081 24.4956L26.9867 17.5518L14.5934 25.6245L23.1281 32.117L14.5934 38.6105L23.0851 43.6403L26.9868 45.951L35.0811 39.7405L43.1727 45.951L47.128 43.5776L55.4066 38.6105L47.5013 31.8351L55.4066 25.2476L43.3615 17.5518ZM46.7967 31.5718L34.9996 39.3894L23.2759 32.0033L35.1062 24.8554L46.7967 31.5718Z" fill="white"/>
<path fill-rule="evenodd" clip-rule="evenodd" d="M70 35C70 54.33 54.3299 70 35 70C27.8309 70 21.1653 67.8446 15.616 64.1466L55.72 6.78931C64.3802 13.1608 70 23.4241 70 35Z" fill="black" fill-opacity="0.08"/>
</svg>
