<svg width="70" height="70" viewBox="0 0 70 70" fill="none" xmlns="http://www.w3.org/2000/svg">
<path fill-rule="evenodd" clip-rule="evenodd" d="M0 34.895C0 15.623 15.6527 0 34.9613 0C54.2699 0 69.9226 15.623 69.9226 34.895C69.9226 54.1669 54.2699 69.7899 34.9613 69.7899C15.6527 69.7899 0 54.1669 0 34.895Z" fill="#D34836"/>
<path fill-rule="evenodd" clip-rule="evenodd" d="M68.8363 26.8625H60.5687V36.0314H56.6716V26.8625H47.5787V23.0463H56.6716V13.958H60.5687V23.0463H67.5106C68.0234 24.2841 68.4669 25.5579 68.8363 26.8625Z" fill="white"/>
<path fill-rule="evenodd" clip-rule="evenodd" d="M9.60439 57.478C10.582 55.8372 12.0978 54.224 14.3434 52.8983C19.4102 49.7997 26.2343 49.3904 29.9245 49.1566C28.7823 47.695 27.4643 46.1457 27.4643 43.6024C27.4643 42.2285 27.8744 41.41 28.2844 40.4453C27.3765 40.533 26.4978 40.6207 25.6778 40.6207C17.0378 40.6207 12.1468 34.1896 12.1468 27.8462C12.1468 24.1045 13.8748 19.9476 17.36 16.9396C22.0168 13.119 27.5522 12.4671 31.9454 12.4671H48.7274L43.5141 15.3932H38.4766C40.351 16.9396 44.2463 20.1932 44.2463 26.3846C44.2463 32.4065 40.8196 35.242 37.4222 37.9314C36.3386 38.9837 35.1378 40.1238 35.1378 41.907C35.1378 43.6901 36.3386 44.684 37.2465 45.4148L40.1753 47.695C43.7777 50.6767 47.0287 53.4537 47.0287 59.0664C47.0287 62.7677 45.2981 66.4826 41.9262 69.3336C40.112 69.6288 38.2508 69.7847 36.3542 69.7898C39.7781 68.2907 41.5518 65.5479 41.5518 62.2527C41.5518 58.1017 38.8866 55.9093 32.6776 51.4952C32.0333 51.4367 31.6232 51.4367 30.8032 51.4367C30.071 51.4367 25.6778 51.5829 22.2511 52.7229C20.4645 53.366 15.2513 55.3246 15.2513 61.1126C15.2513 61.7416 15.3184 62.3515 15.4493 62.9388C6.86195 56.5807 10.582 57.478 9.60439 57.478ZM37.0708 30.1263C37.0708 24.2506 33.5855 15.1506 26.82 15.1506C24.7113 15.1506 22.4268 16.2088 21.1089 17.8371C19.7323 19.5442 19.3223 21.7366 19.3223 23.8414C19.3223 29.3078 22.4854 38.3406 29.5145 38.3406C31.5354 38.3406 33.732 37.3467 35.0499 36.0605C36.9244 34.1896 37.0708 31.5879 37.0708 30.1263Z" fill="white"/>
<path fill-rule="evenodd" clip-rule="evenodd" d="M70 35.105C70 54.377 54.3473 70 35.0387 70C27.8776 70 21.2194 67.8511 15.6761 64.1641L55.7358 6.979C64.3865 13.3313 70 23.5639 70 35.105Z" fill="black" fill-opacity="0.08"/>
</svg>
