<svg width="70" height="70" viewBox="0 0 70 70" fill="none" xmlns="http://www.w3.org/2000/svg">
<g clip-path="url(#clip0_2_209)">
<path d="M54.6509 44.8457L69.6461 39.7478C69.8626 38.1652 69.9714 36.5697 69.9717 34.9724C69.9775 30.3339 69.0581 25.7408 67.2675 21.4618C65.4769 17.1828 62.8509 13.3039 59.5433 10.052L44.825 15.1286L54.6509 44.8457Z" fill="#E0A451"/>
<path d="M44.825 15.1271L39.9295 0.323315C40.1903 0.359837 40.45 0.39991 40.7087 0.443534C35.0876 -0.487133 29.3243 -0.0324613 23.9187 1.76812C18.5131 3.5687 13.6283 6.66083 9.68805 10.7763L14.7235 25.5131L44.825 15.1271Z" fill="#76C5C9"/>
<path d="M44.825 15.1271L59.5433 10.0504L59.4398 9.94849C59.3049 9.8166 59.1684 9.68522 59.0304 9.55435L58.8418 9.3763C58.7089 9.25253 58.5755 9.12978 58.4415 9.00804L58.2376 8.8239C58.1057 8.70622 57.9728 8.59006 57.8389 8.47542L57.6228 8.28976C57.491 8.17715 57.3576 8.06606 57.2226 7.9565L56.9974 7.77084C56.8635 7.66279 56.7281 7.55627 56.5926 7.44975L56.3613 7.27627C56.2244 7.16974 56.0859 7.06626 55.9459 6.96126L55.7146 6.78778C55.5624 6.67821 55.4102 6.57017 55.2581 6.46212L55.0526 6.30994C54.8396 6.16081 54.625 6.01371 54.4089 5.86863C54.2918 5.79102 54.1731 5.71645 54.0559 5.63732L53.7424 5.43341C53.6131 5.35123 53.4807 5.27058 53.3498 5.1884L53.0805 5.0134C52.942 4.9297 52.8035 4.84753 52.6635 4.76687L52.3972 4.61469C52.245 4.531 52.105 4.44882 51.9589 4.36817L51.7063 4.22817C51.5541 4.14498 51.402 4.06331 51.2498 3.98316L51.0109 3.85838C50.8506 3.7762 50.6898 3.69504 50.5285 3.61489L50.3094 3.50685C50.1399 3.42366 49.9695 3.34199 49.7981 3.26184L49.6002 3.16749C49.4186 3.08329 49.236 3.00061 49.0524 2.91945L48.9002 2.85705C48.7009 2.77031 48.5 2.68509 48.2915 2.6014L48.2261 2.574C46.3066 1.78675 44.3204 1.17306 42.2913 0.740276L42.2761 0.732667C42.0255 0.678898 41.7719 0.628172 41.5152 0.58049H41.4818C41.2292 0.532808 40.9755 0.48817 40.7209 0.446575H40.695C40.4363 0.403965 40.1766 0.363892 39.9159 0.326355L44.825 15.1271Z" fill="#657E41"/>
<path d="M24.7959 54.9959L29.7811 69.5896C29.5498 69.5546 29.3246 69.5181 29.0872 69.4785C34.5745 70.4106 40.205 70.0215 45.512 68.3437C50.819 66.6659 55.6498 63.7476 59.6041 59.8305L54.6493 44.8441L24.7959 54.9959Z" fill="#CB2561"/>
<path d="M60.6465 58.7546L60.7987 58.6024C60.9813 58.3995 61.1613 58.1966 61.3389 57.9937L61.4241 57.8948C61.5712 57.7254 61.7168 57.5544 61.8608 57.382C61.9324 57.2968 62.0024 57.2085 62.0739 57.1217C62.1728 57.0015 62.2717 56.8798 62.3691 56.7581C62.4665 56.6363 62.5213 56.5557 62.608 56.4537C62.6947 56.3517 62.7784 56.2346 62.8621 56.125C62.9458 56.0154 63.028 55.9043 63.1102 55.7933L63.3384 55.4889C63.4237 55.3712 63.5079 55.253 63.591 55.1343L63.7995 54.83C63.8858 54.7052 63.971 54.5804 64.0552 54.4556L64.2439 54.171C64.3311 54.0381 64.4173 53.9052 64.5026 53.7723L64.6684 53.5091C64.7567 53.3676 64.8465 53.2245 64.9332 53.0815L65.0702 52.8517C65.163 52.6995 65.2573 52.5382 65.3486 52.3784L65.4323 52.2262C66.0357 51.1636 66.5827 50.0699 67.0713 48.9499L67.1123 48.857C67.2006 48.6541 67.2868 48.4512 67.371 48.2483L67.4228 48.122C67.505 47.9191 67.5851 47.7162 67.6632 47.5133L67.715 47.3794C67.7931 47.1765 67.8692 46.9695 67.9432 46.7585L67.9873 46.6368C68.0634 46.4227 68.137 46.2076 68.208 45.9915L68.2384 45.9002C68.3135 45.672 68.386 45.4427 68.456 45.2124L68.4636 45.1865C69.0039 43.4112 69.4013 41.5955 69.6521 39.7569L54.6569 44.8548L59.6117 59.8412L59.6726 59.7803C59.8019 59.6524 59.9282 59.5216 60.056 59.3922L60.2447 59.199C60.3771 59.0453 60.5126 58.8992 60.6465 58.7546Z" fill="#B32231"/>
<path d="M14.722 25.5101L0.256332 30.4985C0.0668469 31.9823 -0.0281996 33.4766 -0.0282335 34.9724C-0.0338725 39.6106 0.885365 44.2033 2.67571 48.482C4.46607 52.7607 7.09159 56.6395 10.3987 59.8914L24.7974 54.9959L14.722 25.5101Z" fill="#45A98E"/>
<path d="M9.68806 10.7763L9.64393 10.822C9.50494 10.968 9.36697 11.1152 9.23001 11.2633L9.09762 11.4063C8.95357 11.5646 8.81103 11.7239 8.67002 11.8842L8.56501 12.0029C8.41081 12.1794 8.25864 12.3579 8.10849 12.5385L8.0461 12.6116C7.35523 13.4424 6.70241 14.3048 6.08763 15.1986L6.04654 15.2594C5.9106 15.4623 5.77618 15.6652 5.64328 15.8681L5.54741 16.0203C5.4348 16.1938 5.32371 16.3688 5.21415 16.5453L5.09393 16.7432C4.99502 16.9045 4.89763 17.0658 4.80024 17.2301L4.66784 17.4584C4.57806 17.6106 4.48828 17.7627 4.40154 17.924L4.26306 18.1751C4.18089 18.3253 4.09922 18.4775 4.01806 18.6317L3.87806 18.901C3.80197 19.0481 3.7264 19.1962 3.65132 19.3454L3.51132 19.6284C3.44031 19.7745 3.3698 19.9211 3.2998 20.0682L3.16741 20.3497C3.10045 20.4948 3.03451 20.6404 2.96958 20.7865L2.83567 21.0908C2.77277 21.2359 2.7114 21.3815 2.65154 21.5276C2.60792 21.629 2.5648 21.734 2.52219 21.8426C2.46335 21.9877 2.40603 22.1328 2.35024 22.2778C2.30915 22.3843 2.26654 22.4924 2.22545 22.6004C2.17067 22.7526 2.11741 22.8926 2.06415 23.0387C2.02459 23.1483 1.98502 23.2563 1.94698 23.3659C1.89524 23.5181 1.84502 23.6596 1.7948 23.8072C1.75828 23.9183 1.72024 24.0279 1.68372 24.1389C1.63502 24.2911 1.58937 24.4433 1.54372 24.5863C1.50872 24.6974 1.47372 24.8085 1.44024 24.9196C1.39459 25.0718 1.35198 25.224 1.30937 25.3761C1.27741 25.4872 1.24545 25.5968 1.21502 25.7079C1.17241 25.8601 1.13132 26.0229 1.09024 26.1812C1.06285 26.2877 1.03393 26.3942 1.00654 26.5023C0.963934 26.6742 0.924369 26.8477 0.883282 27.0197C0.861977 27.114 0.837629 27.2084 0.816325 27.3027C0.75647 27.5685 0.700166 27.8353 0.647412 28.1032C0.630673 28.1853 0.616977 28.2675 0.60176 28.3497C0.565238 28.5384 0.528717 28.7271 0.49676 28.9158C0.476978 29.033 0.458717 29.1501 0.438934 29.2673C0.413064 29.4195 0.387195 29.5717 0.364369 29.7345C0.344586 29.8623 0.329369 29.9901 0.311108 30.1164C0.292847 30.2428 0.276108 30.3675 0.259369 30.4938L14.725 25.504L9.68806 10.7763Z" fill="#298B75"/>
<path d="M24.7958 54.9958L10.3987 59.8914L10.4413 59.9294C10.6067 60.0917 10.773 60.252 10.9404 60.4103L11.0317 60.497C11.2052 60.6594 11.3797 60.8197 11.5552 60.9779L11.6313 61.0464C11.821 61.2158 12.0122 61.3832 12.205 61.5486L12.243 61.5805C13.078 62.2907 13.9464 62.9653 14.8482 63.6045L14.9487 63.6745C15.1333 63.8033 15.3195 63.9312 15.5072 64.058L15.6867 64.1767C15.849 64.2842 16.0124 64.3907 16.1767 64.4962L16.4065 64.6469C16.5587 64.7423 16.7108 64.8366 16.863 64.9299L17.1156 65.0821L17.5539 65.3378L17.8293 65.49L18.2539 65.7243L18.5476 65.8765L18.963 66.0926L19.2674 66.2448L19.6737 66.4441L19.9993 66.5963C20.1317 66.6587 20.2656 66.7195 20.398 66.7804L20.7389 66.9326C20.8637 66.9874 20.9885 67.0406 21.1148 67.0954C21.4293 67.2314 21.7463 67.3627 22.0658 67.4896L22.1998 67.5428C22.3595 67.6052 22.5208 67.6661 22.6821 67.7254L22.953 67.8274C23.1052 67.8852 23.2726 67.9415 23.4324 67.9978L23.7139 68.0967C23.8752 68.1515 24.0365 68.2033 24.1993 68.2489L24.4824 68.3402C24.6467 68.392 24.8111 68.4407 24.9754 68.4924L25.2554 68.5746L25.7606 68.7161L26.033 68.7891L26.5534 68.9215L26.8121 68.9839C26.9917 69.0265 27.1718 69.0681 27.3524 69.1087L27.5913 69.1605C27.78 69.2015 27.9702 69.2411 28.1604 69.2792L28.3613 69.3172C28.5652 69.3568 28.7691 69.3948 28.97 69.4298L29.0826 69.4481C29.3124 69.4876 29.5391 69.5242 29.7765 69.5592L24.7958 54.9958Z" fill="#432344"/>
</g>
<defs>
<clipPath id="clip0_2_209">
<rect width="70" height="70" fill="white"/>
</clipPath>
</defs>
</svg>
