<svg width="70" height="70" viewBox="0 0 70 70" fill="none" xmlns="http://www.w3.org/2000/svg">
<path fill-rule="evenodd" clip-rule="evenodd" d="M70 35C70 54.33 54.33 70 35 70C15.67 70 0 54.33 0 35C0 15.67 15.67 0 35 0C54.33 0 70 15.67 70 35ZM19.0909 23.5124C19.0909 20.751 21.3295 18.5124 24.0909 18.5124H27.9752C30.7366 18.5124 32.9752 20.751 32.9752 23.5124V44.7521C32.9752 47.5135 30.7366 49.7521 27.9752 49.7521H24.0909C21.3295 49.7521 19.0909 47.5135 19.0909 44.7521V23.5124ZM43.1818 18.5124C40.4204 18.5124 38.1818 20.751 38.1818 23.5124V33.1818C38.1818 35.9432 40.4204 38.1818 43.1818 38.1818H47.0661C49.8275 38.1818 52.0661 35.9432 52.0661 33.1818V23.5124C52.0661 20.751 49.8275 18.5124 47.0661 18.5124H43.1818Z" fill="#5D7FC7"/>
</svg>
