<svg width="70" height="70" viewBox="0 0 70 70" fill="none" xmlns="http://www.w3.org/2000/svg">
<g clip-path="url(#clip0_2_970)">
<path d="M30.6679 40.3048L33.8435 28.8212C33.9399 28.5 34.1312 28.3714 34.4533 28.3714H37.0189C37.3724 28.3714 37.5331 28.5 37.6297 28.8212L40.9016 40.3693L43.7556 31.0019H42.2162C41.8948 31.0019 41.7342 30.8427 41.7342 30.5214V28.8518C41.7342 28.4998 41.8948 28.3713 42.2162 28.3713H46.3207C46.8671 28.3713 47.0919 28.7889 46.9633 29.2374L42.5361 43.8C42.441 44.1213 42.2484 44.2499 41.9271 44.2499H39.0407C38.7196 44.2499 38.5267 44.1213 38.4303 43.7693L35.3832 32.4449L32.2078 43.8C32.1113 44.1213 31.9185 44.2499 31.5987 44.2499H28.7111C28.3904 44.2499 28.1976 44.1213 28.102 43.8L24.6051 31.0019H22.9378C22.6164 31.0019 22.4558 30.8427 22.4558 30.5214V28.8518C22.4558 28.4998 22.6164 28.3713 22.9378 28.3713H27.1395C27.46 28.3713 27.6529 28.4998 27.75 28.8518L30.6679 40.3048Z" fill="#4D4D4D"/>
<path d="M51.1701 60.3053C47.1706 58.1321 44.6116 54.3329 43.8403 50.1816C38.6987 53.1644 32.1739 53.5032 26.5744 50.4563C22.3509 48.1675 17.0646 49.7319 14.7699 53.956C12.4751 58.1788 14.0404 63.4618 18.2638 65.7611C31.158 72.7633 46.5453 70.79 57.242 61.9895C55.1284 61.8638 53.0457 61.3206 51.1701 60.3053Z" fill="#24BAC9"/>
<path d="M62.0111 12.7747C61.8855 14.8605 61.3158 16.9156 60.2875 18.8058C58.1843 22.6866 54.4962 25.342 50.1623 26.1367C53.1521 31.278 53.4894 37.8041 50.4471 43.3985C48.1523 47.6212 49.7181 52.9099 53.9396 55.2078C58.1639 57.4996 63.4513 55.9336 65.7448 51.711C72.7443 38.8325 70.7781 23.4725 62.0111 12.7747Z" fill="#F03955"/>
<path d="M9.66949 51.1868C11.7815 47.3043 15.4639 44.6532 19.797 43.8528C16.8106 38.7127 16.471 32.1925 19.5129 26.5864C21.8047 22.3652 20.2424 17.0806 16.0188 14.7888C11.7932 12.4913 6.50921 14.0571 4.21447 18.2798C-2.78803 31.1583 -0.817455 46.5301 7.95676 57.2251C8.08081 55.1668 8.62712 53.1061 9.66949 51.1868Z" fill="#59B89C"/>
<path d="M51.6956 4.23147C38.801 -2.77667 23.4142 -0.79749 12.7179 7.99987C14.8291 8.12689 16.9171 8.67037 18.7898 9.68692C22.7883 11.8603 25.349 15.6523 26.1224 19.812C31.2646 16.8208 37.7887 16.4875 43.3846 19.5288C47.609 21.822 52.8952 20.259 55.1898 16.0349C57.4846 11.8062 55.923 6.52621 51.6956 4.23147Z" fill="#F09502"/>
</g>
<defs>
<clipPath id="clip0_2_970">
<rect width="70" height="70" fill="white"/>
</clipPath>
</defs>
</svg>
